<svg width="46" height="46" viewBox="0 0 46 46" fill="none" xmlns="http://www.w3.org/2000/svg">
<path d="M26.864 0.736023C26.864 0.766383 26.864 0.796743 26.864 0.828023C26.7997 0.877976 26.7997 0.877976 26.7088 0.937273C25.8949 1.53658 25.4791 2.58987 25.116 3.49602C25.1519 3.49991 25.1879 3.5038 25.2249 3.5078C28.8559 3.90971 32.3993 5.03218 35.42 7.13002C35.4492 7.15016 35.4784 7.1703 35.5085 7.19105C36.3621 7.7808 37.163 8.42497 37.9224 9.13181C38.002 9.20558 38.0822 9.27874 38.1624 9.35186C38.419 9.58649 38.6702 9.81817 38.8932 10.0857C38.964 10.1683 39.039 10.2429 39.1173 10.3184C39.3066 10.5053 39.4705 10.7107 39.6367 10.9181C39.7031 11.0003 39.7704 11.0815 39.838 11.1627C40.198 11.5972 40.5319 12.0447 40.848 12.512C40.8798 12.559 40.8798 12.559 40.9123 12.607C43.1881 15.9948 44.3301 20.0561 44.0795 24.1356C44.0766 24.1842 44.0766 24.1842 44.0735 24.2338C43.841 27.9447 42.467 31.7775 40.25 34.776C40.2047 34.8384 40.1594 34.9007 40.1142 34.9631C39.7282 35.4905 39.3147 35.9924 38.8496 36.452C38.7683 36.5338 38.6935 36.6193 38.6199 36.708C38.4569 36.8962 38.2781 37.0539 38.088 37.214C38.0346 37.26 37.9812 37.306 37.9279 37.352C37.8701 37.4019 37.8123 37.4517 37.7545 37.5015C37.7268 37.5254 37.6991 37.5493 37.6705 37.574C37.2858 37.904 37.2858 37.904 37.168 37.904C37.2366 37.753 37.3238 37.6312 37.4268 37.5015C37.4558 37.4648 37.4849 37.428 37.5148 37.3901C37.537 37.3624 37.5592 37.3346 37.582 37.306C37.5422 37.3411 37.5023 37.3762 37.4613 37.4124C37.2137 37.6245 36.9557 37.8235 36.6985 38.0237C36.6228 38.0827 36.5474 38.1423 36.4721 38.2019C36.4257 38.2384 36.3792 38.2748 36.3314 38.3123C36.3077 38.331 36.2841 38.3497 36.2597 38.369C36.1126 38.483 35.9622 38.5835 35.8024 38.679C35.2485 39.0168 34.9994 39.3294 34.7346 39.9158C34.4943 40.4105 34.0958 40.8239 33.718 41.216C33.688 41.249 33.6579 41.282 33.6269 41.3159C33.1706 41.8024 32.4175 42.3631 31.74 42.458C31.7678 42.2576 31.8168 42.0808 31.8879 41.8915C31.9081 41.8374 31.9283 41.7833 31.9491 41.7275C31.9702 41.6716 31.9914 41.6157 32.0131 41.5581C32.0341 41.5021 32.0551 41.446 32.0767 41.3883C32.1617 41.1613 32.2473 40.9348 32.338 40.71C32.3137 40.7208 32.2894 40.7316 32.2644 40.7428C29.9538 41.7601 27.5045 42.3824 24.9895 42.6018C24.92 42.6081 24.92 42.6081 24.8492 42.6145C24.556 42.6379 24.2687 42.6412 23.9752 42.632C23.1431 42.5775 23.1431 42.5775 22.4288 42.9287C22.3147 43.0577 22.2098 43.1914 22.1082 43.3304C21.9919 43.4772 21.8528 43.5857 21.7034 43.6971C21.6769 43.7173 21.6504 43.7374 21.6232 43.7581C21.546 43.8162 21.4681 43.8732 21.39 43.93C21.3415 43.9658 21.2929 44.0015 21.2429 44.0384C20.5507 44.533 19.6254 45.1418 18.768 45.264C18.7064 45.25 18.645 45.2348 18.584 45.218C18.6023 45.1785 18.6205 45.1391 18.6393 45.0984C19.0418 44.2265 19.4273 43.3514 19.78 42.458C19.7524 42.4527 19.7248 42.4475 19.6963 42.442C18.0075 42.1168 16.3819 41.6876 14.7773 41.0677C14.6777 41.027 14.6777 41.027 14.582 41.032C14.6144 41.0501 14.6469 41.0681 14.6803 41.0868C14.8297 41.17 14.979 41.2534 15.1283 41.3368C15.2048 41.3794 15.2048 41.3794 15.2828 41.4228C15.5892 41.594 15.8924 41.7692 16.192 41.952C15.4153 42.2109 13.8893 41.2716 13.1756 40.9182C12.6007 40.6307 12.0412 40.3213 11.5 39.974C11.4687 39.9539 11.4374 39.9339 11.4052 39.9132C11.2045 39.7834 11.0065 39.6501 10.81 39.514C10.7697 39.4861 10.7697 39.4861 10.7285 39.4577C9.92249 38.8973 9.16592 38.2754 8.44782 37.6064C8.36399 37.5286 8.2797 37.4513 8.19538 37.3739C7.65594 36.8776 7.65594 36.8776 7.44519 36.6236C7.35045 36.5128 7.25094 36.4077 7.1507 36.302C6.85479 35.989 6.58252 35.665 6.32194 35.3223C6.25232 35.2312 6.18175 35.1409 6.11101 35.0508C5.28424 33.9918 4.60439 32.8474 4.00202 31.648C3.98174 31.6079 3.96146 31.5678 3.94056 31.5264C1.92751 27.5171 1.27396 22.5769 2.74708 17.3792C3.60246 14.8012 5.02755 12.3697 6.88097 10.3788C6.96701 10.2852 7.04992 10.1905 7.13253 10.094C7.33903 9.85728 7.56018 9.6353 7.78219 9.41332C7.85399 9.34142 7.92541 9.26916 7.99683 9.19688C8.29093 8.90113 8.59654 8.6311 8.92402 8.37202C8.98091 8.32521 9.03766 8.27823 9.09418 8.23097C9.16428 8.17241 9.23438 8.11386 9.3045 8.05532C9.36169 8.00758 9.41886 7.9598 9.47602 7.91202C9.50638 7.9272 9.53674 7.94238 9.56802 7.95802C9.55284 8.00356 9.53766 8.0491 9.52202 8.09602C9.55481 8.06881 9.5876 8.04159 9.62138 8.01355C10.302 7.45202 10.302 7.45202 10.442 7.45202C10.4538 7.41277 10.4656 7.37351 10.4778 7.33307C10.7252 6.64215 11.2347 6.04661 11.73 5.52002C11.7553 5.4918 11.7805 5.46357 11.8066 5.43449C12.22 4.99053 12.872 4.54057 13.478 4.46202C13.4151 4.60013 13.3409 4.70378 13.2423 4.81852C12.9612 5.17209 12.7646 5.60531 12.604 6.02602C12.6443 6.00533 12.6847 5.98463 12.7262 5.96331C15.1423 4.73326 17.7079 3.90777 20.401 3.5794C20.4334 3.57543 20.4657 3.57146 20.4991 3.56737C20.8824 3.52135 21.263 3.49087 21.6489 3.48039C21.7037 3.47858 21.7037 3.47858 21.7595 3.47674C21.9353 3.47096 22.1107 3.46726 22.2867 3.46778C22.5366 3.46374 22.7423 3.45988 22.9479 3.30408C23.0526 3.1888 23.1419 3.07218 23.23 2.94402C23.9957 2.01718 25.5867 0.736023 26.864 0.736023Z" fill="#FEFEFE"/>
<path d="M24.104 8.04998C24.4384 8.04761 24.7727 8.04602 25.1071 8.04493C25.2204 8.04447 25.3336 8.04385 25.4469 8.04304C26.1855 8.03792 26.9116 8.06069 27.646 8.14198C27.6959 8.14738 27.6959 8.14738 27.7469 8.15288C27.9437 8.17437 28.1398 8.19892 28.336 8.22536C28.4229 8.23706 28.4229 8.23706 28.5116 8.249C29.0427 8.32345 29.5632 8.42845 30.084 8.55598C30.1207 8.5648 30.1574 8.57362 30.1953 8.58271C32.014 9.02328 33.7822 9.72247 35.42 10.626C35.42 10.81 35.42 10.81 35.3388 10.8943C35.301 10.9243 35.2633 10.9544 35.2245 10.9854C34.0954 11.9647 33.4763 13.4887 33.12 14.904C33.1015 14.977 33.1015 14.977 33.0826 15.0515C32.0805 19.087 32.6388 23.3258 33.2826 27.3693C33.3233 27.6254 33.364 27.8815 33.4046 28.1376C33.4096 28.1693 33.4146 28.2009 33.4198 28.2335C33.5429 29.0105 33.6622 29.7872 33.7438 30.5699C33.749 30.619 33.749 30.619 33.7542 30.6691C33.775 30.8725 33.7932 31.0761 33.81 31.28C33.8145 31.3339 33.8191 31.3877 33.8237 31.4432C34.0237 34.0724 33.6975 36.7589 32.9146 39.2759C32.8606 39.45 32.8191 39.6242 32.7805 39.8024C32.5994 40.5631 32.5994 40.5631 32.2726 40.7738C32.0607 40.8828 31.8402 40.9593 31.6131 41.0305C31.4577 41.08 31.306 41.1359 31.1535 41.1937C29.2228 41.9196 27.214 42.4004 25.1591 42.5874C25.1274 42.5903 25.0956 42.5933 25.0629 42.5963C24.6905 42.6302 24.3239 42.6445 23.95 42.6344C23.1321 42.5814 23.1321 42.5814 22.4296 42.9285C22.3148 43.0573 22.2099 43.1911 22.1081 43.3303C21.9919 43.4772 21.8528 43.5857 21.7033 43.6971C21.6769 43.7172 21.6504 43.7373 21.6231 43.7581C21.5459 43.8161 21.4681 43.8732 21.39 43.93C21.3414 43.9657 21.2928 44.0015 21.2428 44.0383C20.5507 44.533 19.6254 45.1417 18.768 45.264C18.7063 45.25 18.6449 45.2348 18.584 45.218C18.6022 45.1785 18.6205 45.139 18.6393 45.0983C19.0418 44.2264 19.4273 43.3514 19.78 42.458C19.7524 42.4527 19.7248 42.4474 19.6963 42.442C17.3802 41.996 14.9153 41.4715 12.9839 40.0501C12.8905 39.9817 12.7964 39.9146 12.7015 39.8482C12.3491 39.6014 12.0096 39.3405 11.6731 39.0724C11.5636 38.9855 11.4534 38.8994 11.3433 38.8134C11.2112 38.71 11.0796 38.606 10.948 38.502C10.9225 38.4819 10.8969 38.4618 10.8706 38.4411C10.7984 38.3841 10.7266 38.3266 10.6547 38.2691C10.6136 38.2363 10.5724 38.2035 10.53 38.1697C10.501 38.1428 10.4719 38.1158 10.442 38.088C10.442 38.0576 10.442 38.0273 10.442 37.996C10.415 37.9838 10.388 37.9716 10.3602 37.9591C10.2545 37.9021 10.1806 37.841 10.0936 37.7586C10.063 37.7299 10.0325 37.7011 10.0011 37.6715C9.96914 37.641 9.93723 37.6105 9.90435 37.5791C9.87157 37.5481 9.8388 37.5171 9.80503 37.4851C9.56868 37.2606 9.3361 37.0328 9.10797 36.8C9.06202 36.7539 9.01604 36.7079 8.96997 36.662C9.0151 36.6357 9.06022 36.6094 9.10671 36.5824C10.9349 35.4942 11.8687 33.6937 12.42 31.694C12.5216 31.284 12.5915 30.8701 12.65 30.452C12.6571 30.4017 12.6641 30.3514 12.6714 30.2996C12.7893 29.4399 12.8437 28.5851 12.8426 27.7179C12.8426 27.6817 12.8426 27.6455 12.8426 27.6082C12.8417 27.0708 12.8273 26.5351 12.7966 25.9986C12.7934 25.9399 12.7902 25.8812 12.7868 25.8207C12.7322 24.9633 12.6003 24.1127 12.4773 23.263C12.3214 22.1851 12.1811 21.1064 12.0577 20.0244C12.0511 19.9661 12.0444 19.9079 12.0375 19.8479C11.8167 17.9114 11.8167 17.9114 11.799 17.066C11.7892 16.6919 11.7769 16.3187 11.7528 15.9453C11.6978 15.0833 11.6685 14.2216 11.6601 13.3579C11.6588 13.2391 11.6569 13.1203 11.6544 13.0015C11.6511 12.834 11.6499 12.6666 11.6493 12.499C11.6472 12.4235 11.6472 12.4235 11.6451 12.3464C11.6471 12.009 11.6471 12.009 11.7521 11.8695C11.8335 11.7984 11.9141 11.7408 12.006 11.684C12.0622 11.6446 12.1184 11.6052 12.1745 11.5657C12.235 11.5262 12.2958 11.4871 12.3567 11.4482C12.407 11.416 12.407 11.416 12.4582 11.3832C12.8811 11.1151 13.3157 10.868 13.754 10.626C13.7929 10.6044 13.8318 10.5828 13.8718 10.5606C15.5393 9.64096 17.3334 9.08252 19.1906 8.69686C19.2235 8.68997 19.2564 8.68309 19.2903 8.67599C19.6668 8.59775 20.0395 8.53306 20.424 8.50998C20.4366 8.84727 20.3879 9.14908 20.3205 9.47886C20.2292 9.94957 20.1536 10.4206 20.0933 10.8962C20.0827 10.9774 20.0827 10.9774 20.0718 11.0603C19.9381 12.1519 19.9004 13.2474 19.9036 14.3462C19.9037 14.4082 19.9038 14.4702 19.9038 14.5322C19.9073 16.3543 20.0406 18.1587 20.286 19.964C20.2913 20.0032 20.2966 20.0424 20.3021 20.0829C20.5037 21.5576 20.7911 23.0165 21.0739 24.4772C21.715 27.7889 21.715 27.7889 21.8851 29.2555C21.8958 29.3469 21.9071 29.4382 21.9184 29.5296C22.1393 31.3704 22.1529 33.3071 21.896 35.144C21.8883 35.2019 21.8807 35.2599 21.8728 35.3196C21.6886 36.6949 21.3901 38.0516 20.976 39.376C20.9576 39.4367 20.9392 39.4974 20.921 39.5582C20.8645 39.7434 20.8057 39.9278 20.746 40.112C20.7297 40.1624 20.7133 40.2129 20.6965 40.2648C20.4945 40.887 20.2924 41.5063 20.0339 42.1078C19.945 42.3191 19.8693 42.5338 19.7954 42.7507C19.5941 43.2987 19.3433 43.8259 19.0986 44.3555C19.062 44.435 19.0253 44.5144 18.9887 44.5939C18.8999 44.7867 18.811 44.9793 18.722 45.172C19.319 44.9706 19.319 44.9706 19.8978 44.7235C19.9296 44.7083 19.9613 44.6932 19.9939 44.6776C21.176 44.0977 22.2332 43.2121 23.046 42.182C23.0824 42.1371 23.1189 42.0922 23.1565 42.046C24.8773 39.8847 25.6279 37.033 25.806 34.316C25.8119 34.2263 25.8119 34.2263 25.818 34.1349C25.8499 33.6268 25.8613 33.1201 25.8606 32.6111C25.8606 32.5715 25.8605 32.5319 25.8605 32.4911C25.8564 30.3325 25.5662 28.2105 25.1868 26.089C24.5854 22.7233 24.1504 19.3226 23.9315 15.9102C23.9287 15.8679 23.926 15.8256 23.9232 15.782C23.8491 14.6109 23.8185 13.4409 23.8193 12.2676C23.8193 12.2052 23.8193 12.1429 23.8193 12.0805C23.8196 11.3143 23.8273 10.5489 23.8682 9.78361C23.87 9.74851 23.8718 9.71341 23.8737 9.67725C23.8904 9.36489 23.9094 9.05853 23.9872 8.7545C24.0411 8.52269 24.0698 8.28538 24.104 8.04998Z" fill="#FEFEFE"/>
<path d="M26.864 0.736023C26.864 0.766383 26.864 0.796743 26.864 0.828023C26.7997 0.877976 26.7997 0.877976 26.7087 0.937273C25.8949 1.53658 25.4791 2.58987 25.116 3.49602C25.1519 3.49991 25.1878 3.5038 25.2248 3.5078C28.8559 3.90971 32.3992 5.03218 35.42 7.13002C35.4492 7.15016 35.4784 7.1703 35.5085 7.19105C36.362 7.7808 37.1629 8.42497 37.9224 9.13181C38.002 9.20558 38.0821 9.27874 38.1624 9.35186C38.4189 9.58649 38.6701 9.81817 38.8932 10.0857C38.9639 10.1683 39.0389 10.2429 39.1172 10.3184C39.3066 10.5053 39.4705 10.7107 39.6366 10.9181C39.703 11.0003 39.7704 11.0815 39.838 11.1627C40.198 11.5972 40.5318 12.0447 40.848 12.512C40.8692 12.5434 40.8904 12.5747 40.9123 12.607C43.188 15.9948 44.3301 20.0561 44.0795 24.1356C44.0775 24.168 44.0755 24.2004 44.0735 24.2338C43.841 27.9447 42.4669 31.7775 40.25 34.776C40.2047 34.8384 40.1594 34.9007 40.1141 34.9631C39.7282 35.4905 39.3147 35.9924 38.8495 36.452C38.7683 36.5338 38.6934 36.6193 38.6199 36.708C38.4568 36.8962 38.2781 37.0539 38.088 37.214C38.0346 37.26 37.9812 37.306 37.9279 37.352C37.8701 37.4019 37.8123 37.4517 37.7545 37.5015C37.7268 37.5254 37.699 37.5493 37.6705 37.574C37.2858 37.904 37.2858 37.904 37.168 37.904C37.2366 37.753 37.3237 37.6312 37.4267 37.5015C37.4558 37.4648 37.4848 37.428 37.5148 37.3901C37.537 37.3624 37.5591 37.3346 37.582 37.306C37.5421 37.3411 37.5023 37.3762 37.4612 37.4124C37.2137 37.6245 36.9557 37.8235 36.6985 38.0237C36.6227 38.0827 36.5474 38.1423 36.4721 38.2019C36.4024 38.2566 36.4024 38.2566 36.3314 38.3123C36.3077 38.331 36.284 38.3497 36.2597 38.369C36.1125 38.483 35.9622 38.5835 35.8024 38.679C35.2485 39.0168 34.9993 39.3294 34.7346 39.9158C34.4943 40.4105 34.0958 40.8239 33.718 41.216C33.6879 41.249 33.6579 41.282 33.6269 41.3159C33.1706 41.8024 32.4175 42.3631 31.74 42.458C31.7677 42.2589 31.8159 42.0829 31.8862 41.8947C31.9062 41.841 31.9262 41.7873 31.9468 41.732C31.9677 41.6765 31.9887 41.6211 32.0102 41.5639C32.0411 41.481 32.0411 41.481 32.0726 41.3963C32.1706 41.1342 32.2702 40.8738 32.384 40.618C32.4143 40.618 32.4447 40.618 32.476 40.618C32.4822 40.5899 32.4884 40.5618 32.4948 40.5329C32.5574 40.2668 32.6315 40.0087 32.7178 39.7495C34.0512 35.7234 33.932 31.7435 33.2348 27.3292C33.2274 27.2825 33.2274 27.2825 33.2198 27.2348C33.2098 27.1716 33.1998 27.1083 33.1898 27.0451C33.1646 26.886 33.1394 26.727 33.1142 26.5679C33.1092 26.5364 33.1043 26.505 33.0991 26.4725C32.8638 24.9853 32.6493 23.4929 32.568 21.988C32.5661 21.9531 32.5642 21.9182 32.5622 21.8823C32.5282 21.2427 32.5126 20.6045 32.5134 19.964C32.5134 19.9193 32.5134 19.8746 32.5134 19.8285C32.5162 18.1628 32.6652 16.5228 33.074 14.904C33.0917 14.8331 33.0917 14.8331 33.1097 14.7607C33.4578 13.3919 34.1847 11.5875 35.42 10.764C35.42 10.7337 35.42 10.7033 35.42 10.672C34.3135 10.0652 33.1634 9.53769 31.9613 9.14998C31.825 9.10575 31.6892 9.05988 31.5535 9.01387C30.5003 8.66124 29.434 8.43838 28.336 8.28002C28.2909 8.27332 28.2458 8.26662 28.1993 8.25972C28.0676 8.24019 27.9359 8.22117 27.8041 8.2024C27.7476 8.19415 27.7476 8.19415 27.69 8.18574C26.8986 8.07728 26.0971 8.08296 25.3 8.07015C25.1837 8.06816 25.0673 8.06615 24.951 8.06413C24.6687 8.05925 24.3863 8.05456 24.104 8.05002C24.1017 8.09159 24.0995 8.13316 24.0972 8.17598C24.0937 8.23024 24.0903 8.2845 24.0867 8.3404C24.0835 8.3943 24.0803 8.4482 24.077 8.50373C24.058 8.64802 24.058 8.64802 23.966 8.78602C23.9911 8.27308 24.0406 7.76783 24.1126 7.2594C24.1201 7.20609 24.1201 7.20609 24.1277 7.1517C24.3059 5.889 24.5677 4.64363 25.024 3.45002C25.0436 3.3966 25.0632 3.34317 25.0835 3.28812C25.4116 2.42504 25.8521 1.54995 26.542 0.920023C25.1848 1.13307 24.036 2.26454 23.1179 3.19334C23.0177 3.29463 22.9168 3.39534 22.816 3.49602C22.8733 3.28575 22.9891 3.17603 23.1419 3.03045C23.228 2.94599 23.3049 2.85809 23.3824 2.76577C24.1268 1.90955 25.6718 0.736023 26.864 0.736023Z" fill="#FDFDFD"/>
<path d="M20.424 8.50999C20.4366 8.84728 20.3879 9.14909 20.3205 9.47887C20.2292 9.94958 20.1536 10.4206 20.0933 10.8962C20.0827 10.9775 20.0827 10.9775 20.0718 11.0603C19.9381 12.1519 19.9004 13.2474 19.9036 14.3462C19.9037 14.4082 19.9038 14.4702 19.9038 14.5322C19.9073 16.3543 20.0406 18.1587 20.286 19.964C20.2913 20.0032 20.2966 20.0425 20.3021 20.0829C20.5042 21.5615 20.7918 23.0245 21.0759 24.489C21.1941 25.0983 21.3102 25.708 21.4232 26.3183C21.4411 26.4146 21.4591 26.511 21.4772 26.6073C21.5019 26.7387 21.5262 26.87 21.5504 27.0015C21.5612 27.058 21.5612 27.058 21.5721 27.1157C21.6105 27.3269 21.6269 27.5233 21.62 27.738C21.5665 27.7436 21.513 27.7493 21.4579 27.7551C21.2669 27.7791 21.0856 27.8246 20.9012 27.8789C20.8273 27.8998 20.7534 27.9207 20.6795 27.9416C20.6388 27.9531 20.5981 27.9647 20.5562 27.9765C18.9689 28.4261 17.363 28.7773 15.732 29.026C15.6561 29.0378 15.6561 29.0378 15.5787 29.0498C14.9368 29.1495 14.2935 29.2402 13.6476 29.3106C13.5962 29.3164 13.5962 29.3164 13.5437 29.3223C13.3714 29.3403 13.202 29.3498 13.0287 29.3489C12.9737 29.3487 12.9737 29.3487 12.9176 29.3485C12.89 29.3483 12.8624 29.3482 12.834 29.348C12.8343 29.3057 12.8343 29.3057 12.8346 29.2625C12.8529 27.6039 12.8529 27.6039 12.7966 25.9469C12.7934 25.8914 12.7901 25.836 12.7868 25.7789C12.729 24.936 12.5982 24.0986 12.4773 23.263C12.3214 22.1851 12.1811 21.1064 12.0577 20.0244C12.0511 19.9661 12.0444 19.9079 12.0375 19.8479C11.8167 17.9114 11.8167 17.9114 11.799 17.066C11.7892 16.6919 11.7769 16.3187 11.7528 15.9453C11.6978 15.0833 11.6685 14.2216 11.6601 13.3579C11.6588 13.2391 11.6569 13.1203 11.6544 13.0015C11.6511 12.834 11.6499 12.6666 11.6493 12.4991C11.6479 12.4487 11.6466 12.3983 11.6451 12.3464C11.6471 12.009 11.6471 12.009 11.7521 11.8696C11.8335 11.7984 11.9141 11.7408 12.006 11.684C12.0622 11.6447 12.1184 11.6053 12.1745 11.5658C12.235 11.5262 12.2958 11.4871 12.3567 11.4482C12.3902 11.4268 12.4237 11.4053 12.4582 11.3832C12.8811 11.1151 13.3157 10.868 13.754 10.626C13.7929 10.6044 13.8318 10.5828 13.8718 10.5606C15.7681 9.51481 17.808 8.96919 19.918 8.55599C19.9593 8.54718 20.0006 8.53837 20.0432 8.5293C20.1714 8.50568 20.2939 8.50697 20.424 8.50999Z" fill="#FDFDFD"/>
<path d="M26.588 0.919998C26.5668 0.938557 26.5455 0.957117 26.5237 0.97624C25.7765 1.67175 25.2939 2.7236 24.978 3.68C24.9669 3.71254 24.9559 3.74508 24.9445 3.7786C24.3663 5.48725 24.1143 7.27024 23.966 9.062C23.9632 9.09555 23.9604 9.1291 23.9575 9.16366C23.7807 11.3385 23.8261 13.5563 23.966 15.732C23.9689 15.7774 23.9718 15.8227 23.9748 15.8695C24.0529 17.073 24.1596 18.2732 24.288 19.4724C24.2935 19.5238 24.299 19.5753 24.3046 19.6283C24.4475 20.956 24.6268 22.2774 24.8297 23.597C24.846 23.7035 24.8623 23.81 24.8786 23.9166C25.0313 24.9162 25.1941 25.9135 25.3661 26.91C25.5849 28.1789 25.7638 29.4425 25.852 30.728C25.8546 30.7631 25.8573 30.7983 25.86 30.8345C26.0193 32.9645 25.9425 35.2338 25.392 37.306C25.381 37.3485 25.37 37.3909 25.3586 37.4347C24.91 39.1516 24.2348 40.8042 23.092 42.182C23.0594 42.2215 23.0594 42.2215 23.0261 42.2619C22.5853 42.7937 22.12 43.274 21.574 43.7C21.5299 43.7346 21.4858 43.7693 21.4403 43.8049C21.115 44.0549 20.7789 44.2764 20.424 44.482C20.3975 44.4974 20.371 44.5127 20.3437 44.5285C20.0024 44.7242 19.6546 44.8899 19.2884 45.034C19.2355 45.0549 19.2355 45.0549 19.1815 45.0762C19.1483 45.0889 19.1151 45.1015 19.0808 45.1145C19.0515 45.1256 19.0222 45.1368 18.9919 45.1483C18.906 45.172 18.906 45.172 18.722 45.172C18.7909 44.9515 18.8777 44.7444 18.9726 44.5343C18.9958 44.4825 18.9958 44.4825 19.0194 44.4297C19.0687 44.3196 19.1181 44.2096 19.1676 44.0996C19.4997 43.3611 19.8185 42.6188 20.102 41.86C20.1151 41.8251 20.1282 41.7902 20.1417 41.7543C20.3956 41.0755 20.6238 40.3903 20.838 39.698C20.8534 39.6486 20.8688 39.5992 20.8847 39.5483C21.5313 37.4689 21.9887 35.2633 21.9973 33.0765C21.9978 32.994 21.9978 32.994 21.9983 32.9098C21.9991 32.7326 21.9994 32.5554 21.9995 32.3782C21.9995 32.3479 21.9995 32.3176 21.9995 32.2864C21.9996 31.3336 21.9811 30.3916 21.8622 29.4456C21.8495 29.3443 21.8374 29.2429 21.8253 29.1415C21.6467 27.6674 21.3555 26.2114 21.076 24.754C20.208 20.227 20.208 20.227 20.01 17.986C20.0066 17.9478 20.0032 17.9095 19.9997 17.8701C19.6372 13.749 19.7191 9.27896 22.862 3.45C23.0258 3.26105 23.1951 3.07857 23.368 2.898C23.3922 2.87231 23.4164 2.84663 23.4413 2.82017C23.9877 2.24177 25.7193 0.573785 26.588 0.919998Z" fill="black"/>
<path d="M24.104 8.04998C24.4384 8.04761 24.7727 8.04602 25.1071 8.04493C25.2204 8.04447 25.3336 8.04385 25.4469 8.04304C26.1855 8.03792 26.9116 8.06069 27.646 8.14198C27.6793 8.14558 27.7126 8.14917 27.7469 8.15288C27.9437 8.17437 28.1399 8.19892 28.336 8.22536C28.3939 8.23316 28.4519 8.24096 28.5116 8.249C29.0428 8.32345 29.5632 8.42845 30.084 8.55598C30.1207 8.5648 30.1574 8.57362 30.1953 8.58271C32.014 9.02328 33.7822 9.72247 35.42 10.626C35.42 10.81 35.42 10.81 35.3388 10.8943C35.301 10.9243 35.2633 10.9544 35.2245 10.9854C34.0954 11.9647 33.4763 13.4887 33.12 14.904C33.1076 14.9527 33.0953 15.0013 33.0826 15.0515C32.6817 16.666 32.5604 18.3058 32.5594 19.964C32.5593 20.0069 32.5593 20.0497 32.5592 20.0939C32.5593 20.7878 32.5871 21.4789 32.6237 22.1716C32.6308 22.3184 32.6357 22.465 32.6399 22.6119C32.6427 22.6602 32.6456 22.7086 32.6486 22.7584C32.6555 23.0884 32.6555 23.0884 32.5541 23.2096C32.4551 23.2746 32.3545 23.3203 32.246 23.368C32.1698 23.4074 32.0937 23.4468 32.0178 23.4865C31.8687 23.564 31.718 23.6383 31.5675 23.713C31.5352 23.7291 31.5029 23.7452 31.4696 23.7617C30.8655 24.0624 30.2565 24.3512 29.6423 24.6307C29.4897 24.7003 29.3374 24.7707 29.1852 24.8412C28.1361 25.3232 27.0631 25.7488 25.99 26.174C25.9566 26.1872 25.9231 26.2005 25.8887 26.2141C25.4084 26.404 25.4084 26.404 25.3 26.404C25.1917 26.1103 25.1252 25.8233 25.0777 25.5144C25.0705 25.4692 25.0633 25.424 25.0558 25.3774C25.0324 25.23 25.0095 25.0824 24.9866 24.9349C24.9703 24.831 24.954 24.7271 24.9377 24.6233C24.4854 21.7327 24.1184 18.8311 23.9315 15.9102C23.9288 15.8679 23.926 15.8257 23.9232 15.7821C23.8491 14.611 23.8185 13.4409 23.8194 12.2676C23.8193 12.2052 23.8193 12.1429 23.8193 12.0805C23.8196 11.3143 23.8273 10.5489 23.8682 9.78361C23.87 9.74851 23.8718 9.71341 23.8737 9.67725C23.8904 9.36489 23.9094 9.05853 23.9872 8.7545C24.0411 8.52269 24.0698 8.28538 24.104 8.04998Z" fill="#FEFEFE"/>
<path d="M13.248 4.55402C13.2936 4.57679 13.2936 4.57679 13.34 4.60002C13.3011 4.64176 13.2622 4.68351 13.2221 4.72652C12.0615 6.10194 11.8908 8.29713 11.7476 10.0246C11.7446 10.0605 11.7417 10.0964 11.7386 10.1333C11.6679 11.0098 11.6623 11.8851 11.6662 12.764C11.6668 12.894 11.6671 13.0239 11.6674 13.1539C11.6705 14.4484 11.6966 15.7361 11.8105 17.0263C11.8225 17.1639 11.8339 17.3015 11.8452 17.4392C12.0167 19.5185 12.2664 21.5947 12.5896 23.6559C12.7082 24.416 12.7792 25.1769 12.834 25.944C12.8401 26.0212 12.8462 26.0983 12.8523 26.1755C12.9888 28.0677 12.9393 30.1453 12.374 31.97C12.3605 32.0145 12.347 32.0589 12.3331 32.1047C11.7895 33.8735 10.9414 35.4467 9.35275 36.4705C9.23663 36.5461 9.12525 36.6229 9.01602 36.708C9.03618 36.7249 9.05634 36.7417 9.07711 36.759C9.28075 36.9329 9.47201 37.1157 9.66002 37.306C9.90555 37.5543 10.1505 37.8017 10.442 37.996C10.442 38.0264 10.442 38.0567 10.442 38.088C10.4795 38.1039 10.4795 38.1039 10.5177 38.1202C10.6566 38.1969 10.7691 38.2972 10.8876 38.4014C11.2187 38.6869 11.5651 38.9505 11.9138 39.2139C11.9974 39.2774 12.0803 39.3416 12.1629 39.4064C12.5439 39.7048 12.9376 39.9812 13.34 40.25C13.3792 40.2762 13.3792 40.2762 13.4191 40.303C14.0327 40.711 14.6712 41.0826 15.3151 41.4403C15.3942 41.4842 15.3942 41.4842 15.4748 41.529C15.5779 41.586 15.6811 41.6428 15.7845 41.6993C15.831 41.725 15.8776 41.7507 15.9255 41.7772C15.967 41.7999 16.0085 41.8226 16.0513 41.8459C16.146 41.906 16.146 41.906 16.192 41.998C15.8391 41.9428 15.5066 41.8596 15.1685 41.745C15.1209 41.7289 15.0732 41.7128 15.0241 41.6963C13.5239 41.1782 12.1124 40.4163 10.81 39.514C10.7697 39.4861 10.7697 39.4861 10.7285 39.4577C9.92249 38.8973 9.16592 38.2754 8.44782 37.6064C8.36399 37.5286 8.2797 37.4512 8.19538 37.3739C7.65594 36.8775 7.65594 36.8775 7.44519 36.6236C7.35045 36.5128 7.25094 36.4077 7.1507 36.302C6.85479 35.989 6.58252 35.665 6.32194 35.3222C6.25232 35.2312 6.18175 35.1409 6.11101 35.0508C5.28424 33.9917 4.60439 32.8473 4.00202 31.648C3.98174 31.6079 3.96146 31.5678 3.94056 31.5264C1.92751 27.5171 1.27396 22.5769 2.74708 17.3792C3.60246 14.8012 5.02755 12.3697 6.88097 10.3788C6.96701 10.2852 7.04992 10.1905 7.13253 10.094C7.33903 9.85727 7.56018 9.6353 7.78219 9.41332C7.85399 9.34142 7.92541 9.26916 7.99683 9.19687C8.29093 8.90112 8.59654 8.63109 8.92402 8.37202C8.98091 8.32521 9.03766 8.27822 9.09418 8.23096C9.16428 8.17241 9.23438 8.11385 9.3045 8.05532C9.36169 8.00757 9.41886 7.9598 9.47602 7.91202C9.50638 7.9272 9.53674 7.94238 9.56802 7.95802C9.35103 8.21524 9.12065 8.45433 8.87981 8.68934C8.78412 8.77824 8.78412 8.77824 8.74002 8.87802C8.70966 8.87802 8.6793 8.87802 8.64802 8.87802C8.63535 8.90536 8.62269 8.9327 8.60964 8.96087C8.55858 9.05718 8.50641 9.12743 8.43401 9.20828C8.40992 9.23551 8.38584 9.26273 8.36102 9.29078C8.33524 9.31965 8.30945 9.34852 8.28289 9.37827C8.01411 9.68379 7.75909 9.99719 7.511 10.3196C7.45479 10.3924 7.3979 10.4647 7.34097 10.5369C5.38957 13.0286 4.04089 15.9107 3.54202 19.044C3.53456 19.0897 3.5271 19.1354 3.51942 19.1825C3.20921 21.1283 3.2157 23.1437 3.43292 25.0991C3.44781 25.234 3.46107 25.3688 3.4732 25.504C3.64295 27.3587 4.10281 29.1556 4.88464 30.8488C4.91761 30.9202 4.91761 30.9202 4.95124 30.993C5.77094 32.7525 6.87969 34.3406 8.1846 35.7744C8.30458 35.9072 8.42113 36.0429 8.53715 36.1792C8.59968 36.2534 8.59968 36.2534 8.69402 36.294C8.83607 35.9492 8.97475 35.6085 9.07585 35.2491C9.10822 35.1433 9.14804 35.0445 9.19139 34.9428C9.76533 33.5317 10.0739 31.9409 10.3126 30.4434C10.3233 30.3772 10.3233 30.3772 10.3343 30.3096C10.4756 29.3799 10.5069 28.453 10.5053 27.5138C10.5052 27.4531 10.5052 27.3925 10.5051 27.33C10.5016 25.5241 10.2459 23.7848 9.96078 22.0046C9.57396 19.5889 9.57396 19.5889 9.43577 18.3828C9.43128 18.3443 9.42679 18.3058 9.42216 18.2661C9.28426 17.0706 9.22944 15.8771 9.23149 14.6747C9.23171 14.5402 9.23139 14.4058 9.23055 14.2713C9.22462 13.308 9.27624 12.3657 9.38402 11.408C9.39198 11.335 9.39198 11.335 9.40011 11.2606C9.59947 9.44132 10.1713 7.38437 11.408 5.98002C11.4568 5.92291 11.4568 5.92291 11.5067 5.86466C11.9985 5.30129 12.5576 4.85363 13.248 4.55402Z" fill="black"/>
<path d="M32.614 22.632C32.6292 22.632 32.6443 22.632 32.66 22.632C32.6639 22.6748 32.6678 22.7176 32.6718 22.7617C32.814 24.3071 33.0387 25.837 33.2826 27.3693C33.3233 27.6254 33.364 27.8815 33.4046 28.1376C33.4096 28.1693 33.4147 28.2009 33.4198 28.2335C33.5429 29.0106 33.6622 29.7872 33.7439 30.5699C33.7473 30.6026 33.7507 30.6354 33.7542 30.6691C33.775 30.8726 33.7932 31.0762 33.81 31.28C33.8145 31.3339 33.8191 31.3878 33.8238 31.4433C33.8614 31.9378 33.8669 32.4316 33.8675 32.9274C33.8676 32.9711 33.8677 33.0147 33.8678 33.0598C33.8686 33.8985 33.8127 34.7249 33.718 35.558C33.6832 35.5713 33.6485 35.5845 33.6126 35.5982C33.4489 35.6663 33.3057 35.7611 33.1574 35.857C31.7342 36.758 30.1755 37.4565 28.566 37.95C28.5287 37.9615 28.4915 37.9731 28.4531 37.9849C27.3581 38.3203 26.1707 38.6629 25.024 38.732C24.9703 38.5709 24.9883 38.5253 25.0375 38.3665C25.0512 38.3212 25.0649 38.2759 25.0791 38.2292C25.1016 38.1565 25.1016 38.1565 25.1246 38.0823C25.155 37.9807 25.1852 37.879 25.2154 37.7773C25.2301 37.7277 25.2448 37.6781 25.2599 37.6269C25.5718 36.5609 25.7335 35.4228 25.806 34.316C25.81 34.2563 25.8139 34.1965 25.818 34.1349C25.8499 33.6268 25.8613 33.1202 25.8606 32.6111C25.8606 32.5715 25.8606 32.5319 25.8605 32.4911C25.8571 30.6455 25.6471 28.8284 25.3465 27.0093C25.298 26.7159 25.2524 26.4221 25.208 26.128C25.2383 26.1432 25.2687 26.1584 25.3 26.174C25.3 26.2499 25.3 26.3258 25.3 26.404C27.276 25.6195 29.2224 24.7984 31.1362 23.8711C31.1689 23.8553 31.2016 23.8395 31.2353 23.8233C31.4197 23.7339 31.6036 23.6433 31.7868 23.5514C31.8825 23.5038 31.9788 23.4575 32.0752 23.4112C32.1385 23.3797 32.2019 23.3481 32.2652 23.3164C32.2947 23.3026 32.3242 23.2888 32.3546 23.2745C32.5035 23.1985 32.5612 23.1563 32.6203 22.9971C32.6333 22.8699 32.6323 22.7584 32.614 22.632Z" fill="#FDFDFD"/>
<path d="M36.524 10.074C36.5696 10.0967 36.5696 10.0967 36.616 10.12C36.5932 10.149 36.5704 10.1781 36.5469 10.208C35.3211 11.8223 35.1242 14.1434 35.006 16.1C35.0031 16.1478 35.0031 16.1478 35.0001 16.1967C34.9579 16.91 34.951 17.6223 34.9514 18.3367C34.9514 18.3943 34.9513 18.4519 34.9513 18.5112C34.9514 19.5802 34.9873 20.6451 35.052 21.712C35.2018 21.712 35.2461 21.6898 35.3728 21.6171C35.4282 21.5855 35.4282 21.5855 35.4848 21.5532C35.5251 21.5297 35.5654 21.5062 35.6069 21.482C35.6707 21.4451 35.6707 21.4451 35.7357 21.4075C37.325 20.4827 38.8545 19.4593 40.388 18.446C40.388 18.9613 39.7216 19.5822 39.3915 19.9388C39.3067 20.0313 39.2249 20.1251 39.1433 20.2204C38.941 20.4523 38.7239 20.6691 38.5059 20.8861C38.436 20.9557 38.3664 21.0256 38.2967 21.0956C38.0511 21.3414 37.8005 21.5782 37.536 21.804C37.4621 21.8709 37.3883 21.9379 37.3147 22.0052C37.1172 22.1834 36.9138 22.3523 36.707 22.5195C36.5814 22.6227 36.4581 22.7279 36.3354 22.8344C36.0933 23.0442 35.8487 23.2494 35.5954 23.4456C35.5705 23.465 35.5457 23.4844 35.52 23.5044C35.4097 23.5888 35.3231 23.6456 35.19 23.69C35.2498 24.2181 35.3102 24.7461 35.3712 25.2741C35.378 25.3337 35.378 25.3337 35.385 25.3945C35.5109 26.4848 35.6465 27.5728 35.8015 28.6592C36.1378 31.0192 36.3959 33.4607 36.018 35.834C36.0101 35.8841 36.0022 35.9343 35.9941 35.9859C35.9012 36.5538 35.7736 37.1119 35.627 37.6682C35.6145 37.716 35.602 37.7638 35.5891 37.8131C35.4974 38.1473 35.3756 38.4611 35.236 38.778C35.2143 38.8288 35.2143 38.8288 35.1921 38.8806C34.8494 39.6735 34.3968 40.3974 33.81 41.032C33.7558 41.0918 33.7558 41.0918 33.7004 41.1529C33.1963 41.6845 32.5948 42.0773 31.924 42.366C31.8937 42.366 31.8633 42.366 31.832 42.366C31.8644 42.1536 31.9419 41.9631 32.0218 41.7651C33.6236 37.7159 34.1442 33.5665 33.2349 27.3292C33.2274 27.2824 33.2274 27.2824 33.2199 27.2347C33.2099 27.1715 33.1999 27.1083 33.1898 27.0451C33.1646 26.886 33.1395 26.7269 33.1143 26.5679C33.1093 26.5364 33.1043 26.5049 33.0992 26.4725C32.8639 24.9853 32.6494 23.4928 32.568 21.988C32.5661 21.9531 32.5642 21.9182 32.5623 21.8822C32.5282 21.2427 32.5127 20.6044 32.5134 19.964C32.5134 19.9193 32.5135 19.8745 32.5135 19.8285C32.5163 18.1628 32.6652 16.5227 33.074 14.904C33.0858 14.8567 33.0976 14.8094 33.1097 14.7607C33.5514 13.0244 34.4757 11.2464 36.0558 10.2998C36.2075 10.2146 36.3602 10.1331 36.524 10.074Z" fill="black"/>
<path d="M24.104 8.04998C24.4384 8.04761 24.7727 8.04602 25.1071 8.04493C25.2204 8.04447 25.3336 8.04385 25.4469 8.04304C26.1855 8.03792 26.9116 8.06069 27.646 8.14198C27.6793 8.14558 27.7126 8.14917 27.7469 8.15288C27.9437 8.17437 28.1399 8.19892 28.336 8.22536C28.3939 8.23316 28.4519 8.24096 28.5116 8.249C29.0428 8.32345 29.5632 8.42845 30.084 8.55598C30.1207 8.5648 30.1574 8.57362 30.1953 8.58271C32.014 9.02328 33.7822 9.72247 35.42 10.626C35.42 10.81 35.42 10.81 35.3388 10.8943C35.301 10.9243 35.2633 10.9544 35.2245 10.9854C33.9291 12.109 33.3783 13.8487 32.982 15.456C32.9668 15.4104 32.9516 15.3649 32.936 15.318C32.8766 15.323 32.8171 15.3281 32.7559 15.3333C32.6684 15.3406 32.5808 15.348 32.4932 15.3554C32.4464 15.3593 32.3995 15.3633 32.3512 15.3673C32.0499 15.3925 31.7485 15.4165 31.447 15.4387C30.4403 15.5137 29.4377 15.6106 28.435 15.7274C28.3194 15.7409 28.2038 15.7542 28.0882 15.7675C26.8928 15.9053 25.7041 16.0673 24.5201 16.2844C24.3487 16.3152 24.1863 16.3379 24.012 16.33C23.9892 16.3755 23.9892 16.3755 23.966 16.422C23.9535 16.2285 23.9413 16.0351 23.9292 15.8416C23.9251 15.7765 23.921 15.7114 23.9168 15.6462C23.8441 14.5206 23.8186 13.3954 23.8194 12.2676C23.8194 12.2052 23.8193 12.1429 23.8193 12.0805C23.8196 11.3143 23.8273 10.5489 23.8682 9.78361C23.87 9.74851 23.8718 9.71341 23.8737 9.67725C23.8904 9.36489 23.9094 9.05853 23.9872 8.7545C24.0411 8.52269 24.0698 8.28538 24.104 8.04998Z" fill="#FEFEFE"/>
<path d="M33.672 35.512C33.6781 35.7702 33.6588 36.0061 33.6112 36.2595C33.6048 36.2948 33.5984 36.3301 33.5919 36.3665C33.5711 36.4804 33.5497 36.5942 33.5282 36.708C33.521 36.747 33.5137 36.786 33.5062 36.8261C33.3435 37.6961 33.1436 38.5483 32.8675 39.3897C32.8166 39.5456 32.7694 39.7021 32.7241 39.8597C32.7058 39.9229 32.7058 39.9229 32.6872 39.9874C32.6638 40.0686 32.6408 40.1499 32.6182 40.2313C32.6076 40.2678 32.597 40.3044 32.5861 40.342C32.5725 40.3904 32.5725 40.3904 32.5586 40.4398C32.3993 40.8149 31.7658 40.9549 31.4201 41.0961C29.3668 41.9203 27.1914 42.4097 24.9895 42.6018C24.9432 42.606 24.8968 42.6102 24.8491 42.6145C24.556 42.6379 24.2686 42.6412 23.9751 42.632C23.1431 42.5775 23.1431 42.5775 22.4287 42.9287C22.3147 43.0577 22.2097 43.1914 22.1081 43.3304C21.9919 43.4772 21.8528 43.5857 21.7033 43.6971C21.6769 43.7173 21.6504 43.7374 21.6231 43.7581C21.5459 43.8162 21.4681 43.8732 21.39 43.93C21.3414 43.9658 21.2928 44.0015 21.2428 44.0384C20.5507 44.533 19.6254 45.1418 18.768 45.264C18.7063 45.25 18.6449 45.2348 18.584 45.218C18.6113 45.1588 18.6113 45.1588 18.6393 45.0984C19.0418 44.2265 19.4273 43.3514 19.78 42.458C19.7524 42.4527 19.7248 42.4475 19.6963 42.442C17.3802 41.996 14.9153 41.4716 12.9839 40.0501C12.8905 39.9817 12.7964 39.9146 12.7015 39.8482C12.3491 39.6014 12.0096 39.3405 11.6731 39.0724C11.5636 38.9855 11.4534 38.8995 11.3433 38.8134C11.2112 38.71 11.0796 38.6061 10.948 38.502C10.9097 38.4719 10.9097 38.4719 10.8706 38.4411C10.7984 38.3841 10.7266 38.3266 10.6547 38.2691C10.6136 38.2364 10.5724 38.2036 10.53 38.1698C10.501 38.1428 10.4719 38.1158 10.442 38.088C10.442 38.0577 10.442 38.0273 10.442 37.996C10.415 37.9838 10.388 37.9717 10.3602 37.9591C10.2545 37.9022 10.1806 37.8411 10.0936 37.7587C10.063 37.7299 10.0325 37.7012 10.0011 37.6716C9.96914 37.6411 9.93723 37.6106 9.90435 37.5791C9.87157 37.5481 9.8388 37.5171 9.80503 37.4851C9.56868 37.2606 9.3361 37.0329 9.10797 36.8C9.06202 36.754 9.01604 36.708 8.96997 36.662C9.01616 36.6347 9.06236 36.6074 9.10995 36.5792C9.54261 36.3186 9.92879 36.0339 10.304 35.696C10.3275 35.7124 10.351 35.7288 10.3752 35.7457C10.6627 35.9421 10.9604 36.1123 11.2671 36.2768C11.319 36.3046 11.3709 36.3325 11.4243 36.3612C14.43 37.9554 17.6884 38.7491 21.068 38.962C20.9908 39.3548 20.8696 39.7319 20.746 40.112C20.7293 40.1635 20.7127 40.2149 20.6955 40.2679C20.4939 40.889 20.2919 41.5073 20.0339 42.1078C19.945 42.3191 19.8693 42.5338 19.7954 42.7507C19.5941 43.2987 19.3433 43.826 19.0986 44.3555C19.062 44.435 19.0253 44.5145 18.9887 44.594C18.8999 44.7867 18.811 44.9794 18.722 45.172C19.319 44.9707 19.319 44.9707 19.8978 44.7235C19.9454 44.7008 19.9454 44.7008 19.9939 44.6776C21.176 44.0978 22.2332 43.2121 23.046 42.182C23.1007 42.1147 23.1007 42.1147 23.1565 42.046C23.8369 41.1914 24.352 40.2091 24.7622 39.1999C24.7755 39.1677 24.7889 39.1355 24.8027 39.1022C24.8273 39.0401 24.8498 38.977 24.8701 38.9133C24.9002 38.8251 24.9002 38.8251 24.978 38.686C25.112 38.6425 25.112 38.6425 25.2827 38.6343C25.3492 38.6291 25.4157 38.6235 25.4822 38.6176C25.5189 38.6143 25.5557 38.6111 25.5935 38.6077C26.6376 38.4888 27.6774 38.1811 28.672 37.8525C28.7892 37.8142 28.9067 37.7773 29.0245 37.7409C30.6083 37.2429 32.1598 36.5171 33.5282 35.5764C33.626 35.512 33.626 35.512 33.672 35.512Z" fill="#FEFEFE"/>
<path d="M20.424 8.50999C20.4366 8.84727 20.388 9.1491 20.3205 9.47887C20.2268 9.95935 20.1524 10.4393 20.0934 10.925C20.0877 10.9718 20.0877 10.9718 20.0818 11.0196C20.032 11.4325 19.985 11.8459 19.9454 12.26C19.9224 12.496 19.9224 12.496 19.8944 12.5983C19.8675 12.7157 19.8645 12.8244 19.8625 12.9449C19.8616 12.9946 19.8607 13.0443 19.8598 13.0956C19.859 13.1489 19.8582 13.2023 19.8574 13.2573C19.856 13.3396 19.856 13.3396 19.8545 13.4236C19.8515 13.5989 19.8488 13.7742 19.8461 13.9495C19.8441 14.0683 19.8421 14.1872 19.8401 14.306C19.8352 14.5973 19.8305 14.8887 19.826 15.18C19.5734 15.2665 19.3208 15.3456 19.0627 15.4143C18.9964 15.4322 18.9301 15.4501 18.8638 15.468C18.8294 15.4773 18.7951 15.4866 18.7597 15.4961C18.0207 15.6962 17.2944 15.9235 16.5702 16.1715C16.303 16.263 16.0343 16.3484 15.7638 16.4299C15.5966 16.4813 15.4345 16.5413 15.272 16.606C15.2042 16.6326 15.2042 16.6326 15.1351 16.6597C14.9503 16.7328 14.7661 16.8072 14.582 16.882C14.5423 16.8981 14.5027 16.9141 14.4618 16.9307C13.6696 17.2531 12.8761 17.5863 12.1156 17.979C12.006 18.032 12.006 18.032 11.914 18.032C11.8465 17.6359 11.8029 17.2451 11.7828 16.8439C11.7799 16.7885 11.7769 16.7331 11.7739 16.676C11.7645 16.4955 11.7557 16.315 11.7472 16.1345C11.7458 16.1037 11.7443 16.0728 11.7428 16.041C11.6994 15.122 11.6658 14.2027 11.6571 13.2827C11.6559 13.168 11.6541 13.0533 11.6518 12.9387C11.6488 12.7792 11.6479 12.6198 11.6477 12.4602C11.6465 12.4134 11.6452 12.3665 11.644 12.3182C11.647 12.0078 11.647 12.0078 11.7522 11.872C11.8336 11.8008 11.9148 11.7419 12.006 11.684C12.0622 11.6446 12.1184 11.6052 12.1745 11.5658C12.235 11.5262 12.2958 11.4871 12.3567 11.4482C12.3902 11.4268 12.4237 11.4053 12.4582 11.3832C12.8811 11.1151 13.3158 10.868 13.754 10.626C13.7929 10.6044 13.8318 10.5828 13.8718 10.5606C15.7681 9.51481 17.808 8.96919 19.918 8.55599C19.9593 8.54718 20.0006 8.53837 20.0432 8.5293C20.1714 8.50568 20.294 8.50697 20.424 8.50999Z" fill="#FEFEFE"/>
<path d="M22.816 3.45003C22.7489 3.64667 22.6437 3.79776 22.5199 3.96178C21.4851 5.37937 20.8726 7.04472 20.47 8.74003C20.4548 8.74003 20.4396 8.74003 20.424 8.74003C20.424 8.66413 20.424 8.58823 20.424 8.51003C17.571 9.0164 13.8663 9.82367 11.73 11.96C11.7159 12.0629 11.7159 12.0629 11.7181 12.1834C11.7178 12.2303 11.7175 12.2772 11.7172 12.3256C11.7174 12.3769 11.7176 12.4282 11.7178 12.4811C11.7176 12.5345 11.7175 12.5879 11.7174 12.6428C11.7172 12.8177 11.7178 12.9926 11.7185 13.1675C11.7186 13.2268 11.7186 13.2861 11.7187 13.3473C11.72 14.1559 11.7351 14.9617 11.7892 15.7686C11.8202 16.2327 11.8269 16.6931 11.822 17.158C11.8068 17.158 11.7916 17.158 11.776 17.158C11.6548 15.7794 11.6225 14.404 11.621 13.0209C11.6207 12.8936 11.6202 12.7663 11.6197 12.6389C11.6163 11.7654 11.6292 10.8968 11.7012 10.0259C11.704 9.99186 11.7068 9.95786 11.7097 9.92282C11.7997 8.85874 11.9511 7.7924 12.236 6.76203C12.2462 6.72247 12.2565 6.68291 12.267 6.64216C12.3552 6.31952 12.4499 6.12783 12.7468 5.95667C12.8244 5.91587 12.9024 5.87578 12.9806 5.83628C13.0231 5.81452 13.0656 5.79276 13.1093 5.77035C15.6409 4.49187 18.389 3.76329 21.206 3.49603C21.2558 3.49106 21.2558 3.49106 21.3066 3.48599C21.8085 3.43662 22.3123 3.44534 22.816 3.45003Z" fill="#FEFEFE"/>
<path d="M28.934 4.27802C29.2347 4.30681 29.5058 4.39927 29.7908 4.49652C29.837 4.51193 29.8832 4.52735 29.9307 4.54323C31.9181 5.21328 33.8374 6.16028 35.558 7.36002C35.5846 7.37841 35.6111 7.39681 35.6385 7.41576C36.423 7.96107 37.1618 8.56418 37.8618 9.21403C37.9943 9.33646 38.1288 9.45652 38.2634 9.57664C38.4378 9.73484 38.5959 9.89765 38.7473 10.0778C38.8281 10.1708 38.9138 10.2557 39.0023 10.3414C39.1822 10.5189 39.3404 10.7096 39.4984 10.9067C39.6057 11.0396 39.7163 11.169 39.8274 11.2988C40.1131 11.6416 40.3674 12.0051 40.618 12.374C40.6392 12.4051 40.6604 12.4363 40.6822 12.4683C41.2425 13.2985 41.7277 14.1737 42.136 15.088C42.1528 15.1251 42.1696 15.1621 42.187 15.2003C42.8683 16.7074 43.2553 18.2771 43.5756 19.8926C43.6034 20.0328 43.6318 20.1729 43.6603 20.313C43.7193 20.6089 43.7583 20.9062 43.792 21.206C43.7984 21.2606 43.7984 21.2606 43.805 21.3162C43.8837 22.0118 43.8938 22.7061 43.8955 23.4054C43.8958 23.449 43.896 23.4926 43.8962 23.5375C43.8987 24.1105 43.8693 24.6712 43.8035 25.2403C43.7872 25.391 43.775 25.542 43.7627 25.693C43.715 26.2768 43.5944 26.8446 43.47 27.416C43.4593 27.4663 43.4486 27.5165 43.4376 27.5683C43.3149 28.1429 43.1776 28.7049 42.9806 29.259C42.9202 29.4289 42.8668 29.5927 42.833 29.7699C42.7675 30.0818 42.6389 30.3738 42.5184 30.6676C42.5054 30.6996 42.4923 30.7316 42.4789 30.7645C41.8957 32.1875 41.1654 33.5379 40.25 34.776C40.2047 34.8384 40.1594 34.9007 40.1142 34.9631C39.7282 35.4905 39.3147 35.9924 38.8496 36.452C38.7683 36.5338 38.6935 36.6193 38.6199 36.708C38.4569 36.8962 38.2782 37.0539 38.088 37.214C38.0346 37.26 37.9812 37.306 37.9279 37.352C37.8701 37.4019 37.8123 37.4517 37.7545 37.5015C37.7268 37.5254 37.6991 37.5493 37.6705 37.574C37.2858 37.904 37.2858 37.904 37.168 37.904C37.2472 37.7193 37.3713 37.5708 37.4958 37.4153C37.5186 37.3863 37.5415 37.3574 37.5651 37.3276C37.6616 37.2057 37.7587 37.0847 37.8586 36.9655C38.9639 35.6395 39.7951 34.0178 40.55 32.4761C40.6427 32.2879 40.7376 32.1008 40.8327 31.9137C40.9314 31.7081 41.0102 31.4958 41.0891 31.2819C41.1626 31.0843 41.2385 30.8876 41.3138 30.6906C41.42 30.4121 41.5258 30.1333 41.63 29.854C41.6507 29.799 41.6713 29.7441 41.6926 29.6874C42.0357 28.7546 42.2748 27.7939 42.458 26.818C42.4666 26.773 42.4752 26.728 42.4841 26.6817C42.8199 24.9007 42.8416 23.0463 42.596 21.252C42.5854 21.1675 42.5748 21.083 42.5642 20.9985C42.3927 19.6909 41.9644 18.3853 41.492 17.158C41.4763 17.1162 41.4605 17.0744 41.4443 17.0313C40.8249 15.3911 40.0761 13.7885 39.1 12.328C39.0789 12.2963 39.0579 12.2646 39.0361 12.2319C38.621 11.61 38.1831 11.0022 37.6879 10.4413C37.536 10.2674 37.536 10.2674 37.536 10.166C37.5057 10.166 37.4753 10.166 37.444 10.166C37.384 10.1065 37.384 10.1065 37.3118 10.0194C36.748 9.35955 36.1404 8.74195 35.4601 8.20113C35.3608 8.12212 35.263 8.04213 35.1658 7.96071C33.5766 6.63648 31.7289 5.62733 29.8531 4.77252C29.5427 4.63071 29.2372 4.48059 28.934 4.32402C28.934 4.30884 28.934 4.29366 28.934 4.27802Z" fill="#020202"/>
<path d="M13.478 4.46198C13.4151 4.60008 13.341 4.70373 13.2423 4.81848C13.0265 5.09049 12.8864 5.39684 12.7378 5.70862C12.6795 5.83054 12.6188 5.95126 12.558 6.07198C12.531 6.12605 12.531 6.12605 12.5034 6.18123C12.4911 6.20589 12.4787 6.23056 12.466 6.25598C12.42 6.16398 12.42 6.16398 12.4614 6.02831C12.4834 5.97077 12.5061 5.91346 12.5293 5.85635C12.5415 5.826 12.5537 5.79565 12.5663 5.76438C12.7392 5.3514 12.9722 4.95284 13.248 4.59998C12.7278 4.85229 12.2905 5.12476 11.868 5.51998C11.8224 5.56089 11.8224 5.56089 11.7758 5.60263C10.6564 6.65191 10.0844 8.25444 9.72328 9.70598C9.70865 9.76334 9.69403 9.82071 9.67897 9.87981C9.61213 10.1554 9.56078 10.4135 9.55688 10.6975C9.53466 11.4639 9.22111 11.8375 8.6854 12.3481C8.52894 12.4943 8.37076 12.6386 8.21147 12.7817C7.95981 13.0099 7.75042 13.2538 7.54403 13.524C7.50443 13.5713 7.4645 13.6184 7.42399 13.665C5.28818 16.1555 3.97256 19.2517 3.35803 22.448C3.34285 22.448 3.32767 22.448 3.31203 22.448C3.29455 20.9057 3.29455 20.9057 3.35228 20.1767C3.35769 20.1082 3.35769 20.1082 3.36321 20.0382C3.69223 16.304 5.38157 12.8288 7.75318 9.97061C7.84892 9.85512 7.94369 9.73884 8.03853 9.6226C8.0706 9.58358 8.10268 9.54457 8.13574 9.50437C8.20713 9.41692 8.27784 9.32892 8.34813 9.24058C8.38542 9.19398 8.42272 9.14737 8.46115 9.09935C8.49477 9.05695 8.52839 9.01456 8.56303 8.97087C8.59108 8.94022 8.61913 8.90956 8.64803 8.87797C8.67839 8.87797 8.70875 8.87797 8.74003 8.87797C8.7526 8.85052 8.76517 8.82307 8.77812 8.79478C8.98749 8.40326 9.45232 8.13047 9.79803 7.86598C9.82501 7.84512 9.852 7.82427 9.87981 7.80279C9.95585 7.74405 10.0321 7.68563 10.1085 7.62735C10.1529 7.59349 10.1972 7.55963 10.2429 7.52475C10.35 7.45198 10.35 7.45198 10.442 7.45198C10.4597 7.39309 10.4597 7.39309 10.4778 7.33302C10.7252 6.6421 11.2347 6.04656 11.73 5.51998C11.7679 5.47764 11.7679 5.47764 11.8066 5.43444C12.1802 5.03326 12.9143 4.46198 13.478 4.46198Z" fill="#FCFCFC"/>
<path d="M21.114 6.34802C21.1701 6.51621 21.1442 6.5607 21.0836 6.72393C21.0575 6.79616 21.0575 6.79616 21.0308 6.86986C21.0118 6.92156 20.9927 6.97326 20.9731 7.02652C20.771 7.5903 20.6098 8.15793 20.47 8.74002C20.4548 8.74002 20.4397 8.74002 20.424 8.74002C20.424 8.66412 20.424 8.58822 20.424 8.51002C17.5711 9.0164 13.8664 9.82366 11.73 11.96C11.7159 12.0629 11.7159 12.0629 11.7181 12.1834C11.7178 12.2303 11.7175 12.2772 11.7172 12.3256C11.7174 12.3769 11.7176 12.4282 11.7178 12.4811C11.7177 12.5345 11.7176 12.5879 11.7174 12.6428C11.7173 12.8177 11.7178 12.9926 11.7185 13.1675C11.7186 13.2268 11.7187 13.2861 11.7188 13.3472C11.7201 14.1559 11.7352 14.9617 11.7893 15.7686C11.8202 16.2327 11.8269 16.6931 11.822 17.158C11.8068 17.158 11.7917 17.158 11.776 17.158C11.6548 15.7794 11.6226 14.404 11.621 13.0209C11.6208 12.8936 11.6203 12.7662 11.6197 12.6389C11.6153 11.5011 11.6641 10.3785 11.776 9.24602C11.7912 9.24602 11.8064 9.24602 11.822 9.24602C11.822 9.38264 11.822 9.51926 11.822 9.66002C11.8573 9.63986 11.8926 9.6197 11.9289 9.59893C12.0092 9.55309 12.0894 9.50726 12.1697 9.46155C12.3448 9.36177 12.5192 9.26105 12.6931 9.15923C13.1875 8.87117 13.6861 8.6086 14.2068 8.3716C14.2999 8.32881 14.3925 8.28488 14.4848 8.24031C14.9223 8.02981 15.3685 7.84951 15.824 7.68202C15.8681 7.66576 15.9122 7.6495 15.9576 7.63274C16.6622 7.37502 17.3707 7.16186 18.0999 6.9854C18.2669 6.94484 18.4335 6.90295 18.6002 6.86103C20.305 6.44002 20.305 6.44002 21.114 6.44002C21.114 6.40966 21.114 6.3793 21.114 6.34802Z" fill="#B2B3B6"/>
<path d="M19.872 12.512C19.8872 12.512 19.9023 12.512 19.918 12.512C19.9179 12.5506 19.9178 12.5891 19.9177 12.6288C19.9167 12.9987 19.9161 13.3685 19.9156 13.7384C19.9154 13.9284 19.9151 14.1184 19.9145 14.3083C19.9139 14.5286 19.9136 14.7489 19.9135 14.9693C19.9134 15.0234 19.9134 15.0234 19.9134 15.0787C19.9133 15.4618 19.9166 15.8443 19.9317 16.2272C19.9335 16.2744 19.9335 16.2744 19.9354 16.3226C19.9413 16.4698 19.9481 16.617 19.9559 16.7641C19.9582 16.815 19.9606 16.8659 19.963 16.9184C19.9654 16.9627 19.9678 17.007 19.9703 17.0527C19.964 17.158 19.964 17.158 19.872 17.25C19.7812 17.2807 19.7812 17.2807 19.6688 17.3081C19.6058 17.3238 19.6058 17.3238 19.5415 17.3399C19.4731 17.3566 19.4731 17.3566 19.4034 17.3736C18.9802 17.4804 18.5627 17.599 18.1459 17.7284C17.9002 17.8045 17.6541 17.8772 17.4062 17.9454C16.7989 18.113 16.2055 18.3189 15.6118 18.5289C15.4766 18.5767 15.3412 18.624 15.2057 18.6712C14.6511 18.8664 14.1062 19.0851 13.5614 19.3056C13.5061 19.328 13.5061 19.328 13.4496 19.3508C13.0727 19.5035 12.6978 19.6568 12.3313 19.8335C12.236 19.872 12.236 19.872 12.098 19.872C12.0828 19.9176 12.0676 19.9631 12.052 20.01C12.019 19.6875 11.9863 19.365 11.9537 19.0425C11.9426 18.9328 11.9315 18.8232 11.9203 18.7135C11.9041 18.5557 11.8882 18.3979 11.8723 18.2401C11.8673 18.1912 11.8622 18.1423 11.8571 18.092C11.835 17.8718 11.8153 17.6557 11.822 17.434C11.9236 17.5865 11.9243 17.6339 11.9197 17.8106C11.9189 17.8521 11.9181 17.8935 11.9172 17.9363C11.9162 17.9679 11.9151 17.9995 11.914 18.032C11.9469 18.0156 11.9799 17.9993 12.0138 17.9824C12.6678 17.6586 13.3248 17.3472 13.9984 17.066C14.027 17.054 14.0556 17.0421 14.085 17.0297C14.7748 16.7415 15.4733 16.4882 16.1834 16.2553C16.3131 16.2126 16.4427 16.1698 16.5724 16.127C16.6189 16.1116 16.6189 16.1116 16.6663 16.096C16.8456 16.0364 17.0235 15.974 17.2008 15.9085C17.4189 15.8281 17.6385 15.7601 17.8624 15.6975C17.9019 15.6863 17.9414 15.6752 17.9822 15.6636C18.5796 15.4959 19.18 15.3384 19.78 15.18C19.7805 15.1493 19.7809 15.1186 19.7814 15.087C19.7864 14.7676 19.7917 14.4482 19.7971 14.1289C19.7991 14.0096 19.801 13.8904 19.8029 13.7712C19.8055 13.5999 19.8085 13.4286 19.8114 13.2574C19.8126 13.1773 19.8126 13.1773 19.8138 13.0956C19.8147 13.0459 19.8156 12.9962 19.8165 12.9449C19.8173 12.9012 19.818 12.8575 19.8187 12.8125C19.8254 12.7061 19.8421 12.614 19.872 12.512Z" fill="#B2B3B6"/>
<path d="M30.1846 13.8374C30.2293 13.8374 30.274 13.8374 30.3201 13.8373C30.9621 13.8376 31.6021 13.8531 32.2431 13.8891C32.2967 13.8921 32.2967 13.8921 32.3513 13.8952C32.6709 13.9136 32.9872 13.9356 33.304 13.984C33.356 14.1401 33.3433 14.1808 33.2974 14.3339C33.2852 14.3754 33.273 14.4168 33.2604 14.4596C33.2407 14.5244 33.2407 14.5244 33.2206 14.5906C33.1954 14.6756 33.1701 14.7606 33.145 14.8456C33.1329 14.8864 33.1207 14.9273 33.1082 14.9693C33.0617 15.1306 33.0213 15.2928 32.982 15.456C32.9668 15.4105 32.9516 15.3649 32.936 15.318C32.8766 15.3231 32.8172 15.3281 32.756 15.3333C32.6684 15.3407 32.5808 15.348 32.4933 15.3554C32.4464 15.3594 32.3995 15.3633 32.3513 15.3674C32.0499 15.3926 31.7486 15.4165 31.447 15.4388C30.4403 15.5137 29.4377 15.6106 28.4351 15.7274C28.3195 15.7409 28.2038 15.7542 28.0882 15.7675C26.8928 15.9053 25.7041 16.0673 24.5201 16.2845C24.3488 16.3153 24.1863 16.3379 24.012 16.33C23.9968 16.3604 23.9816 16.3907 23.966 16.422C23.9527 16.216 23.9396 16.0099 23.9267 15.8038C23.9223 15.7339 23.9178 15.6641 23.9133 15.5942C23.8865 15.1796 23.8668 14.7678 23.874 14.352C24.9169 14.1925 25.9589 14.0558 27.0106 13.9696C27.0552 13.9659 27.0998 13.9622 27.1458 13.9584C28.1577 13.8751 29.1693 13.8365 30.1846 13.8374Z" fill="#B2B3B6"/>
<path d="M33.81 33.258C33.8252 33.258 33.8403 33.258 33.856 33.258C33.8656 33.7838 33.8374 34.2987 33.787 34.822C33.7803 34.894 33.7736 34.966 33.767 35.038C33.751 35.2114 33.7346 35.3847 33.718 35.558C33.6832 35.5712 33.6484 35.5845 33.6126 35.5982C33.4489 35.6662 33.3057 35.7611 33.1574 35.857C31.7342 36.758 30.1755 37.4564 28.566 37.95C28.5101 37.9673 28.5101 37.9673 28.4531 37.9849C27.3581 38.3203 26.1707 38.6629 25.024 38.732C24.9696 38.569 24.99 38.5183 25.0391 38.3568C25.0531 38.3097 25.0672 38.2626 25.0817 38.2141C25.0968 38.1649 25.1119 38.1157 25.1275 38.065C25.1565 37.9687 25.1855 37.8724 25.2144 37.7761C25.2287 37.7289 25.243 37.6817 25.2577 37.633C25.3214 37.4177 25.3801 37.201 25.438 36.984C25.4804 36.987 25.5229 36.9899 25.5666 36.993C25.8148 36.9926 26.0422 36.9125 26.2775 36.8402C26.326 36.8257 26.3746 36.8111 26.4246 36.7961C26.5712 36.7518 26.7176 36.707 26.864 36.662C26.9464 36.6371 27.0288 36.6122 27.1112 36.5872C27.186 36.5643 27.2607 36.5413 27.3355 36.5182C27.3682 36.5083 27.401 36.4983 27.4347 36.488C27.6775 36.4116 27.9095 36.3156 28.1438 36.2163C28.2889 36.1564 28.4349 36.1011 28.5823 36.0471C29.4561 35.7272 30.3012 35.3581 31.142 34.96C31.1907 34.937 31.2394 34.914 31.2895 34.8903C31.9215 34.5891 32.5304 34.2505 33.1292 33.8879C33.2194 33.8334 33.3101 33.7798 33.4013 33.7271C33.4473 33.6996 33.4933 33.6722 33.5406 33.644C33.6032 33.6073 33.6032 33.6073 33.6671 33.57C33.7846 33.4705 33.797 33.4086 33.81 33.258Z" fill="#B2B3B6"/>
<path d="M32.614 22.632C32.6292 22.632 32.6444 22.632 32.66 22.632C32.6673 22.7056 32.6673 22.7056 32.6747 22.7806C32.6974 23.009 32.7203 23.2374 32.7434 23.4658C32.7475 23.5067 32.7516 23.5476 32.7559 23.5897C32.8087 24.1124 32.8647 24.6338 32.9463 25.153C32.9733 25.3312 32.9805 25.4441 32.936 25.622C32.8905 25.4171 32.8905 25.4171 32.844 25.208C32.6739 25.2505 32.5609 25.3017 32.4088 25.3852C32.3584 25.4126 32.308 25.44 32.2561 25.4683C32.2293 25.483 32.2024 25.4977 32.1747 25.5129C30.6178 26.3637 29.0216 27.0961 27.3655 27.7323C27.2398 27.781 27.1146 27.8307 26.9896 27.8811C26.7907 27.961 26.5906 28.0372 26.3896 28.1118C26.1484 28.2009 26.1484 28.2009 25.9104 28.2983C25.806 28.336 25.806 28.336 25.622 28.336C25.6068 28.3816 25.5916 28.4271 25.576 28.474C25.5384 28.236 25.5007 27.998 25.4631 27.76C25.4504 27.6793 25.4376 27.5987 25.4249 27.518C25.3516 27.0548 25.2787 26.5916 25.208 26.128C25.2384 26.1432 25.2687 26.1584 25.3 26.174C25.3 26.2499 25.3 26.3258 25.3 26.404C27.276 25.6195 29.2224 24.7984 31.1363 23.8711C31.1689 23.8553 31.2016 23.8395 31.2353 23.8233C31.4198 23.7339 31.6036 23.6433 31.7868 23.5514C31.8825 23.5038 31.9788 23.4575 32.0752 23.4112C32.1386 23.3797 32.2019 23.3481 32.2652 23.3164C32.2947 23.3026 32.3242 23.2888 32.3546 23.2745C32.5035 23.1985 32.5612 23.1563 32.6204 22.9971C32.6333 22.8699 32.6324 22.7584 32.614 22.632Z" fill="#B2B3B6"/>
<path d="M21.666 27.692C21.9012 29.3364 21.9012 29.3364 21.9564 29.8914C21.9616 29.9434 21.9616 29.9434 21.967 29.9965C21.9854 30.1954 21.9909 30.3906 21.988 30.59C21.8944 30.4495 21.8813 30.3989 21.8669 30.2373C21.8631 30.1962 21.8592 30.1552 21.8552 30.1128C21.8516 30.0701 21.848 30.0274 21.8443 29.9834C21.8403 29.9401 21.8363 29.8969 21.8322 29.8523C21.8225 29.7456 21.8131 29.6388 21.804 29.532C21.7728 29.5401 21.7415 29.5481 21.7093 29.5565C20.3617 29.9009 18.9962 30.1511 17.6184 30.3406C17.5223 30.3541 17.4262 30.3682 17.3303 30.3827C16.9049 30.4465 16.4797 30.4889 16.0511 30.5239C16.0153 30.5268 15.9795 30.5298 15.9425 30.5329C14.8458 30.6227 13.7503 30.6451 12.65 30.636C12.6561 30.5783 12.6622 30.5205 12.6685 30.461C12.7093 30.0748 12.75 29.6885 12.788 29.302C12.8139 29.3027 12.8397 29.3035 12.8663 29.3042C13.2088 29.3095 13.5433 29.277 13.8834 29.2388C13.9377 29.2329 13.9921 29.2271 14.0481 29.2211C14.4119 29.1813 14.7727 29.1297 15.134 29.072C15.2284 29.0577 15.3227 29.0435 15.417 29.0292C17.3721 28.7277 19.3772 28.3764 21.2522 27.7294C21.3966 27.6902 21.5172 27.6893 21.666 27.692Z" fill="#B2B3B6"/>
<path d="M10.81 35.098C10.8252 35.1284 10.8404 35.1587 10.856 35.19C10.9323 35.2071 11.0091 35.2221 11.086 35.236C11.1615 35.2636 11.2363 35.2933 11.3104 35.3246C11.3736 35.351 11.3736 35.351 11.438 35.3779C11.4822 35.3966 11.5264 35.4152 11.5719 35.4344C11.8847 35.5646 12.1954 35.6915 12.5199 35.7904C12.6379 35.8299 12.7516 35.8744 12.8669 35.9212C13.0958 36.0136 13.327 36.0957 13.5614 36.1733C13.603 36.1871 13.6446 36.2008 13.6875 36.215C14.1354 36.3617 14.5869 36.4934 15.042 36.616C15.1048 36.633 15.1048 36.633 15.1689 36.6503C17.2126 37.1965 19.2765 37.4714 21.39 37.444C21.4033 37.3701 21.4033 37.3701 21.4169 37.2947C21.429 37.2304 21.4411 37.1662 21.4532 37.1019C21.4591 37.0694 21.4649 37.0368 21.4709 37.0033C21.4869 36.9196 21.5072 36.8367 21.528 36.754C21.5584 36.7388 21.5887 36.7237 21.62 36.708C21.5637 37.1368 21.4754 37.5515 21.3689 37.9699C21.3437 38.0691 21.319 38.1685 21.2944 38.2678C21.2784 38.3316 21.2623 38.3953 21.2462 38.4591C21.2247 38.5444 21.2247 38.5444 21.2028 38.6315C21.1675 38.7523 21.1294 38.853 21.068 38.962C20.5727 38.9745 20.0932 38.9373 19.6017 38.8815C19.5457 38.8753 19.5457 38.8753 19.4885 38.8689C17.5562 38.6527 15.6021 38.2377 13.8 37.49C13.7573 37.4725 13.7146 37.455 13.6706 37.437C12.7088 37.0414 11.7666 36.6135 10.856 36.11C10.7875 36.0728 10.7875 36.0728 10.7177 36.0348C10.676 36.0112 10.6344 35.9877 10.5915 35.9634C10.5363 35.9325 10.5363 35.9325 10.4801 35.901C10.396 35.834 10.396 35.834 10.3548 35.7426C10.3464 35.5796 10.4739 35.4771 10.5771 35.3625C10.6103 35.3243 10.6103 35.3243 10.6442 35.2853C10.699 35.2224 10.7544 35.1601 10.81 35.098Z" fill="#B3B4B7"/>
<path d="M9.33799 11.592C9.38054 11.7322 9.38494 11.8416 9.36937 11.9869C9.36521 12.029 9.36106 12.0711 9.35677 12.1145C9.34979 12.1832 9.34979 12.1832 9.34266 12.2532C9.28092 12.9217 9.27144 13.5891 9.26324 14.26C9.26148 14.3813 9.25968 14.5026 9.25785 14.6238C9.2535 14.9166 9.24957 15.2093 9.24599 15.502C9.23081 15.502 9.21563 15.502 9.19999 15.502C9.16367 15.202 9.14162 14.9039 9.12812 14.6021C9.12613 14.5601 9.12414 14.5181 9.1221 14.4748C9.11728 14.3725 9.11258 14.2703 9.10799 14.168C8.96884 14.3058 8.82995 14.4439 8.69112 14.582C8.65213 14.6206 8.61314 14.6592 8.57297 14.699C8.34268 14.9284 8.12263 15.1625 7.91199 15.41C7.86723 15.4614 7.82243 15.5128 7.77759 15.5642C7.45784 15.9332 7.1501 16.3097 6.85399 16.698C6.83092 16.7281 6.80784 16.7582 6.78407 16.7892C6.03737 17.7679 5.3493 18.8035 4.73799 19.872C4.71873 19.9055 4.69948 19.9391 4.67964 19.9737C4.54247 20.214 4.40931 20.4564 4.27799 20.7C4.25544 20.7417 4.23288 20.7834 4.20964 20.8264C3.93224 21.3417 3.67147 21.8557 3.45951 22.4016C3.40399 22.54 3.40399 22.54 3.35799 22.586C3.35075 22.6644 3.34645 22.7432 3.34344 22.8219C3.34151 22.8695 3.33958 22.9171 3.3376 22.9661C3.33488 23.0412 3.33488 23.0412 3.33212 23.1179C3.33013 23.1681 3.32814 23.2184 3.3261 23.2701C3.3212 23.3947 3.31651 23.5194 3.31199 23.644C3.29681 23.644 3.28163 23.644 3.26599 23.644C3.26599 22.8394 3.26599 22.0349 3.26599 21.206C3.28117 21.206 3.29635 21.206 3.31199 21.206C3.32717 21.5096 3.34235 21.8132 3.35799 22.126C3.37365 22.0502 3.3893 21.9744 3.40543 21.8963C3.9618 19.2643 5.06307 16.7455 6.66999 14.582C6.69436 14.5491 6.71873 14.5163 6.74384 14.4825C7.07211 14.0425 7.41217 13.6148 7.77399 13.202C7.82682 13.1414 7.82682 13.1414 7.88073 13.0796C8.34349 12.5625 8.84547 12.0805 9.33799 11.592Z" fill="#B2B3B6"/>
<path d="M24.242 6.394C24.653 6.3809 25.0539 6.42064 25.461 6.47163C25.4939 6.47567 25.5269 6.47972 25.5608 6.48389C26.2151 6.56479 26.8624 6.67382 27.508 6.808C27.5645 6.81973 27.5645 6.81973 27.6221 6.8317C30.4283 7.42728 33.0961 8.68131 35.5115 10.2002C35.6182 10.2669 35.7257 10.3319 35.834 10.396C35.7667 10.598 35.651 10.6205 35.466 10.718C35.4395 10.7014 35.413 10.6848 35.3857 10.6677C35.0752 10.477 34.7566 10.312 34.4281 10.1545C34.3742 10.1286 34.3202 10.1027 34.2646 10.076C33.431 9.67966 32.5689 9.35428 31.694 9.062C31.6549 9.04867 31.6157 9.03535 31.5754 9.02162C30.5173 8.66231 29.4407 8.43933 28.336 8.28C28.2909 8.2733 28.2458 8.2666 28.1993 8.2597C28.0677 8.24017 27.9359 8.22115 27.8041 8.20238C27.7665 8.19688 27.7288 8.19138 27.69 8.18572C26.8986 8.07726 26.0971 8.08294 25.3 8.07013C25.1837 8.06814 25.0674 8.06613 24.9511 8.06411C24.6687 8.05923 24.3864 8.05454 24.104 8.05C24.1018 8.09157 24.0995 8.13314 24.0972 8.17596C24.0937 8.23022 24.0903 8.28448 24.0868 8.34038C24.0836 8.39428 24.0803 8.44818 24.0771 8.50371C24.058 8.648 24.058 8.648 23.966 8.786C23.9906 8.24374 24.0518 7.71285 24.1299 7.176C24.1408 7.09958 24.1516 7.02315 24.1625 6.94672C24.1887 6.76244 24.2152 6.57821 24.242 6.394Z" fill="#B3B4B7"/>
<path d="M42.044 22.862C42.2571 23.2882 41.7049 24.4189 41.5524 24.8774C40.6916 27.4438 39.4224 29.8492 37.674 31.924C37.6527 31.9495 37.6313 31.975 37.6093 32.0013C37.3511 32.3093 37.0902 32.6079 36.8018 32.8884C36.6782 33.0118 36.5643 33.1423 36.4509 33.2751C36.4009 33.3328 36.348 33.388 36.294 33.442C36.273 33.5429 36.2563 33.6447 36.2423 33.7467C36.2346 33.8014 36.2269 33.8561 36.2189 33.9124C36.2133 33.9545 36.2078 33.9966 36.202 34.04C36.1868 34.04 36.1717 34.04 36.156 34.04C36.1556 34.0145 36.1551 33.989 36.1546 33.9627C36.1495 33.6917 36.1443 33.4207 36.1389 33.1497C36.1369 33.0492 36.135 32.9487 36.1331 32.8482C36.1208 32.1868 36.0995 31.5266 36.064 30.866C36.172 31.028 36.1734 31.1194 36.1848 31.3116C36.1882 31.3659 36.1917 31.4201 36.1952 31.476C36.1986 31.5384 36.1986 31.5384 36.202 31.602C36.3342 31.5416 36.4331 31.4758 36.5388 31.3763C36.567 31.3499 36.5952 31.3235 36.6242 31.2963C36.6538 31.2681 36.6833 31.24 36.7138 31.211C36.7444 31.1821 36.775 31.1532 36.8066 31.1234C37.1736 30.7756 37.5299 30.4231 37.858 30.038C37.899 29.9912 37.94 29.9445 37.9811 29.8978C38.8987 28.8498 39.682 27.6755 40.342 26.45C40.3644 26.4086 40.3868 26.3671 40.4098 26.3244C40.9336 25.3483 41.4105 24.3547 41.8258 23.3279C41.8477 23.2738 41.8696 23.2196 41.8922 23.1639C41.9116 23.1155 41.9309 23.0672 41.9509 23.0174C41.998 22.908 41.998 22.908 42.044 22.862Z" fill="#B2B3B6"/>
<path d="M9.47602 18.722C9.4912 18.722 9.50638 18.722 9.52202 18.722C9.56921 19.0395 9.61586 19.3572 9.66212 19.6749C9.67792 19.783 9.69385 19.891 9.70991 19.9991C9.73297 20.1543 9.75556 20.3096 9.77807 20.465C9.78535 20.5133 9.79263 20.5617 9.80013 20.6115C9.80981 20.6791 9.80981 20.6791 9.81968 20.7482C9.8255 20.7878 9.83132 20.8275 9.83732 20.8683C9.84409 20.9771 9.83063 21.0566 9.79802 21.16C9.79802 21.1296 9.79802 21.0993 9.79802 21.068C7.89965 22.1218 6.00419 23.3116 4.41673 24.8075C4.32787 24.8827 4.24621 24.9313 4.14001 24.978C4.20393 24.7596 4.29785 24.573 4.41601 24.38C4.44323 24.3352 4.44323 24.3352 4.471 24.2895C4.88234 23.6217 5.36915 23.0171 5.90275 22.4435C6.01307 22.324 6.12029 22.2024 6.22726 22.08C6.47956 21.7995 6.757 21.549 7.03801 21.298C7.07732 21.2625 7.07732 21.2625 7.11741 21.2263C7.73852 20.6668 8.4109 20.1761 9.09076 19.6909C9.12373 19.6672 9.15669 19.6435 9.19065 19.6192C9.41907 19.458 9.41907 19.458 9.52202 19.458C9.51448 19.4255 9.50695 19.3931 9.49919 19.3597C9.47523 19.2235 9.47148 19.0987 9.47314 18.9606C9.47356 18.9157 9.47397 18.8708 9.4744 18.8246C9.47493 18.7907 9.47547 18.7569 9.47602 18.722Z" fill="#B2B3B6"/>
<path d="M28.704 4.18597C29.1461 4.20493 29.544 4.33848 29.9604 4.47635C29.9978 4.48863 30.0352 4.50091 30.0738 4.51356C32.9935 5.47398 35.672 7.03718 37.9224 9.13176C38.002 9.20553 38.0821 9.27869 38.1624 9.35181C38.4189 9.58644 38.6701 9.81812 38.8932 10.0857C38.9639 10.1682 39.0389 10.2429 39.1172 10.3183C39.3066 10.5052 39.4705 10.7106 39.6366 10.9181C39.703 11.0002 39.7704 11.0815 39.838 11.1627C40.198 11.5972 40.5318 12.0446 40.848 12.512C40.8692 12.5433 40.8904 12.5747 40.9123 12.607C43.188 15.9948 44.3301 20.0561 44.0795 24.1356C44.0775 24.168 44.0755 24.2004 44.0735 24.2337C43.9555 26.1173 43.5484 27.9549 42.872 29.716C42.8116 29.5347 42.8569 29.4712 42.9262 29.295C43.065 28.9276 43.1567 28.554 43.2457 28.1721C43.2612 28.107 43.2767 28.0418 43.2923 27.9767C43.3225 27.8496 43.3525 27.7224 43.3822 27.5951C43.4086 27.4817 43.4354 27.3683 43.4626 27.255C43.5868 26.7318 43.6654 26.2078 43.7259 25.6737C43.7345 25.6 43.7345 25.6 43.7434 25.5248C43.8239 24.8222 43.8474 24.1291 43.8466 23.4226C43.8466 23.3767 43.8465 23.3307 43.8465 23.2834C43.8431 21.1716 43.4811 19.064 42.8344 17.0527C42.7699 16.8503 42.7099 16.6468 42.6506 16.4428C42.5674 16.201 42.4662 15.9672 42.366 15.732C42.3373 15.6643 42.3373 15.6643 42.3081 15.5953C41.4021 13.4693 40.159 11.5128 38.502 9.88997C38.3759 9.76456 38.2507 9.63837 38.1264 9.51119C37.8455 9.22504 37.5637 8.95159 37.2485 8.70278C37.1351 8.61242 37.0253 8.51886 36.916 8.42366C36.5289 8.0881 36.1158 7.79106 35.696 7.49797C35.6677 7.47813 35.6394 7.45829 35.6102 7.43785C34.7187 6.81695 33.7697 6.27976 32.798 5.79597C32.7537 5.77392 32.7095 5.75186 32.6639 5.72913C32.0943 5.44695 31.519 5.19089 30.9256 4.96295C30.8127 4.91914 30.7003 4.87392 30.588 4.82854C30.3833 4.74644 30.1771 4.66995 29.969 4.5971C29.9352 4.58529 29.9015 4.57348 29.8667 4.56131C29.3966 4.39251 29.3966 4.39251 28.9081 4.2981C28.8559 4.29146 28.8037 4.28482 28.75 4.27797C28.7348 4.24761 28.7196 4.21725 28.704 4.18597Z" fill="#F5F5F5"/>
<path d="M10.442 25.484C10.4572 25.484 10.4723 25.484 10.488 25.484C10.5241 25.889 10.5418 26.2907 10.5433 26.6973C10.5436 26.7545 10.5438 26.8118 10.5441 26.8707C10.5445 26.9915 10.5449 27.1123 10.545 27.233C10.5455 27.413 10.5469 27.5929 10.5484 27.7729C10.5525 28.7701 10.4776 29.7451 10.304 30.728C10.2888 30.728 10.2736 30.728 10.258 30.728C10.258 30.6217 10.258 30.5155 10.258 30.406C10.23 30.4043 10.202 30.4026 10.1732 30.4008C9.81912 30.3742 9.4745 30.3141 9.12689 30.2441C9.00704 30.2202 8.887 30.1975 8.76693 30.1748C6.29825 29.6958 6.29825 29.6958 5.56598 29.118C5.8557 29.1416 6.1443 29.1716 6.43279 29.2071C6.48108 29.213 6.48108 29.213 6.53034 29.219C6.66346 29.2353 6.79657 29.2517 6.92963 29.2685C7.78702 29.3762 8.64433 29.401 9.5076 29.4199C9.59448 29.4219 9.68136 29.4239 9.76824 29.4259C9.97748 29.4308 10.1867 29.4354 10.396 29.44C10.4316 28.9217 10.4484 28.4068 10.4465 27.8873C10.4464 27.8173 10.4463 27.7472 10.4463 27.6772C10.4461 27.4958 10.4457 27.3144 10.4451 27.133C10.4447 26.9467 10.4445 26.7604 10.4442 26.5741C10.4437 26.2107 10.443 25.8474 10.442 25.484Z" fill="#B5B6B9"/>
<path d="M35.144 14.214C35.7549 14.2828 36.3526 14.3977 36.9524 14.5302C36.9871 14.5378 37.0219 14.5454 37.0577 14.5532C37.5482 14.6606 38.0251 14.7928 38.502 14.95C38.5466 14.9645 38.5912 14.9791 38.6372 14.9941C38.7456 15.0297 38.8538 15.0659 38.962 15.1024C38.9982 15.1145 39.0343 15.1266 39.0716 15.1391C39.1578 15.168 39.2439 15.197 39.33 15.226C39.33 15.2412 39.33 15.2563 39.33 15.272C37.9183 15.2568 36.5065 15.2416 35.052 15.226C35.1038 14.5015 35.1038 14.5015 35.144 14.214Z" fill="#B2B3B6"/>
<path d="M28.704 4.18597C29.1461 4.20493 29.544 4.33848 29.9604 4.47635C29.9978 4.48863 30.0352 4.50091 30.0738 4.51356C32.9935 5.47398 35.672 7.03718 37.9224 9.13176C38.002 9.20553 38.0821 9.27869 38.1624 9.35181C38.4187 9.58623 38.6697 9.81773 38.8926 10.0849C38.9665 10.1712 39.0448 10.2503 39.1259 10.3298C39.2348 10.4378 39.3419 10.5469 39.445 10.6605C39.4682 10.6859 39.4915 10.7112 39.5154 10.7374C39.5301 10.7613 39.5448 10.7853 39.56 10.81C39.5448 10.8555 39.5296 10.9011 39.514 10.948C39.3521 10.7881 39.196 10.6244 39.0425 10.4563C39.0206 10.4324 38.9986 10.4085 38.976 10.3838C38.8365 10.2312 38.6992 10.0767 38.5624 9.9216C38.4129 9.75485 38.2569 9.60647 38.0858 9.46232C37.9924 9.38085 37.9068 9.29475 37.8206 9.20572C37.644 9.0267 37.4543 8.86964 37.2582 8.71248C37.1419 8.61812 37.0284 8.52133 36.9154 8.42305C36.5282 8.08792 36.1156 7.79091 35.696 7.49797C35.6677 7.47813 35.6394 7.45829 35.6102 7.43785C34.7187 6.81695 33.7697 6.27976 32.798 5.79597C32.7537 5.77392 32.7095 5.75186 32.6639 5.72913C32.0943 5.44695 31.519 5.19089 30.9256 4.96295C30.8127 4.91914 30.7003 4.87392 30.588 4.82854C30.3833 4.74644 30.1771 4.66995 29.969 4.5971C29.9352 4.58529 29.9015 4.57348 29.8667 4.56131C29.3966 4.39251 29.3966 4.39251 28.9081 4.2981C28.8559 4.29146 28.8037 4.28482 28.75 4.27797C28.7348 4.24761 28.7196 4.21725 28.704 4.18597Z" fill="#EAEAEB"/>
<path d="M7.08398 33.166C7.11262 33.1829 7.14127 33.1997 7.17077 33.217C7.29351 33.2889 7.41646 33.3605 7.53949 33.4319C7.60784 33.4716 7.67612 33.5115 7.74434 33.5515C8.2797 33.865 8.81717 34.1554 9.38398 34.408C9.32661 34.6395 9.26675 34.8691 9.19998 35.098C9.16767 35.0644 9.13535 35.0308 9.10205 34.9961C8.97607 34.8702 8.83976 34.7646 8.69686 34.6581C8.22392 34.3 7.7755 33.9184 7.36394 33.4907C7.27082 33.3941 7.27082 33.3941 7.16341 33.32C7.1372 33.2996 7.11099 33.2791 7.08398 33.258C7.08398 33.2277 7.08398 33.1973 7.08398 33.166Z" fill="#B5B6B8"/>
<path d="M26.864 0.736023C26.864 0.766383 26.864 0.796743 26.864 0.828023C26.7997 0.877976 26.7997 0.877976 26.7087 0.937273C25.9644 1.48538 25.5571 2.42342 25.2159 3.25215C25.198 3.29527 25.1802 3.33839 25.1618 3.38282C25.1462 3.42134 25.1307 3.45986 25.1146 3.49955C25.07 3.58802 25.07 3.58802 24.978 3.63402C25.0692 3.29177 25.195 2.97808 25.3489 2.6594C25.3711 2.61322 25.3934 2.56705 25.4163 2.51948C25.7127 1.91734 26.0666 1.3954 26.542 0.920023C25.1848 1.13307 24.036 2.26454 23.1179 3.19334C23.0177 3.29463 22.9168 3.39534 22.816 3.49602C22.8733 3.28574 22.9891 3.17603 23.1419 3.03045C23.228 2.94599 23.3049 2.85809 23.3824 2.76577C24.1268 1.90955 25.6718 0.736023 26.864 0.736023Z" fill="#D3D4D5"/>
<path d="M19.826 42.412C19.8563 42.4272 19.8867 42.4423 19.918 42.458C19.708 42.965 19.4912 43.4687 19.2682 43.9702C19.2457 44.021 19.2231 44.0717 19.1999 44.124C19.0435 44.4747 18.8837 44.8237 18.722 45.172C20.2387 44.6709 21.5228 43.8413 22.632 42.688C22.6779 42.6419 22.7238 42.5958 22.77 42.55C22.7431 42.7009 22.6987 42.7769 22.5912 42.8851C22.5635 42.9131 22.5359 42.941 22.5073 42.9698C22.4773 42.9992 22.4473 43.0286 22.4164 43.0589C22.3699 43.1047 22.3699 43.1047 22.3225 43.1515C22.0296 43.4361 21.7196 43.6894 21.39 43.93C21.317 43.9837 21.317 43.9837 21.2426 44.0385C20.5504 44.533 19.6254 45.1417 18.768 45.264C18.7063 45.25 18.6449 45.2348 18.584 45.218C18.6022 45.1785 18.6205 45.139 18.6393 45.0983C18.986 44.3474 19.3252 43.5954 19.631 42.8267C19.6502 42.7786 19.6693 42.7304 19.6891 42.6808C19.7056 42.6387 19.7222 42.5965 19.7393 42.5531C19.78 42.458 19.78 42.458 19.826 42.412Z" fill="#CCCDCE"/>
<path d="M36.202 10.626C36.2418 10.662 36.2817 10.6981 36.3227 10.7352C36.4813 10.8715 36.649 10.9921 36.8201 11.1119C37.3119 11.4571 37.7711 11.8439 38.226 12.236C38.0517 12.236 37.9843 12.1818 37.8371 12.0895C37.7871 12.0584 37.7371 12.0273 37.6855 11.9952C37.6592 11.9786 37.6329 11.962 37.6057 11.945C37.5244 11.8938 37.4427 11.843 37.361 11.7924C37.1291 11.6486 36.8978 11.5039 36.6676 11.3573C36.6072 11.3196 36.5469 11.2818 36.4866 11.2441C36.4107 11.1956 36.4107 11.1956 36.3333 11.1462C36.1858 11.0786 36.1234 11.0808 35.972 11.132C36.0387 10.9576 36.117 10.7922 36.202 10.626Z" fill="#B8B9BB"/>
<path d="M35.098 39.008C35.144 39.146 35.144 39.146 35.1143 39.2317C35.0977 39.2635 35.0811 39.2953 35.064 39.328C35.0455 39.3637 35.027 39.3994 35.0079 39.4362C34.9873 39.4742 34.9668 39.5122 34.9456 39.5514C34.9246 39.5905 34.9036 39.6297 34.882 39.6701C34.5644 40.2508 34.1759 40.7407 33.718 41.216C33.6879 41.249 33.6579 41.2819 33.6269 41.3159C33.1706 41.8023 32.4175 42.3631 31.74 42.458C31.7677 42.2589 31.8159 42.0828 31.8863 41.8947C31.9062 41.841 31.9262 41.7873 31.9468 41.732C31.9677 41.6765 31.9887 41.621 32.0102 41.5639C32.0308 41.5086 32.0514 41.4533 32.0726 41.3963C32.1706 41.1341 32.2702 40.8738 32.384 40.618C32.4437 40.7971 32.4028 40.864 32.3387 41.0399C32.3184 41.0961 32.2981 41.1523 32.2773 41.2102C32.2553 41.2697 32.2334 41.3291 32.2115 41.3885C32.1903 41.4472 32.169 41.5059 32.1479 41.5646C32.0496 41.835 31.9499 42.1034 31.832 42.366C33.3603 41.646 34.3647 40.5166 35.098 39.008Z" fill="#D3D3D5"/>
<path d="M13.478 4.46198C13.4151 4.60008 13.3409 4.70373 13.2423 4.81848C13.0264 5.09049 12.8864 5.39684 12.7378 5.70862C12.6795 5.83054 12.6188 5.95126 12.558 6.07198C12.531 6.12605 12.531 6.12605 12.5034 6.18123C12.4911 6.20589 12.4787 6.23056 12.466 6.25598C12.42 6.16398 12.42 6.16398 12.4613 6.02831C12.4834 5.97077 12.5061 5.91346 12.5293 5.85635C12.5415 5.826 12.5537 5.79565 12.5662 5.76438C12.7392 5.3514 12.9722 4.95284 13.248 4.59998C12.7278 4.85229 12.2905 5.12476 11.868 5.51998C11.8376 5.54725 11.8072 5.57453 11.7758 5.60263C11.2591 6.08701 10.9229 6.70152 10.5878 7.31634C10.534 7.40598 10.534 7.40598 10.442 7.49798C10.4689 7.27996 10.5646 7.10776 10.672 6.9201C10.6997 6.87144 10.6997 6.87144 10.728 6.82179C11.0065 6.34226 11.3505 5.92344 11.73 5.51998C11.7553 5.49175 11.7805 5.46352 11.8066 5.43444C12.1801 5.03326 12.9143 4.46198 13.478 4.46198Z" fill="#D0D1D2"/>
<path d="M28.704 4.18597C29.1214 4.20198 29.4898 4.32306 29.8829 4.4536C29.9933 4.49021 30.104 4.52601 30.2147 4.5617C30.5836 4.68178 30.9483 4.81076 31.3086 4.95468C31.3421 4.96774 31.3756 4.9808 31.4102 4.99426C31.4912 5.02751 31.5699 5.06632 31.648 5.10597C31.6707 5.17428 31.6707 5.17428 31.694 5.24397C31.4742 5.17552 31.2662 5.102 31.0586 5.00247C30.6693 4.82148 30.2606 4.68996 29.854 4.55397C29.8185 4.54207 29.7829 4.53017 29.7463 4.5179C29.3384 4.37859 29.3384 4.37859 28.916 4.30061C28.8612 4.29314 28.8064 4.28567 28.75 4.27797C28.7348 4.24761 28.7196 4.21725 28.704 4.18597Z" fill="#E6E6E7"/>
<path d="M26.542 0.828003C26.5876 0.843183 26.6331 0.858363 26.68 0.874003C26.6544 0.904659 26.6288 0.935316 26.6024 0.966901C26.0048 1.68861 25.5564 2.41021 25.2043 3.27784C25.188 3.31752 25.1718 3.35719 25.155 3.39807C25.1337 3.45139 25.1337 3.45139 25.1119 3.50578C25.07 3.588 25.07 3.588 24.978 3.634C25.0693 3.29175 25.195 2.97806 25.3489 2.65938C25.3712 2.6132 25.3934 2.56703 25.4164 2.51946C25.6846 1.97449 25.9936 1.49357 26.4171 1.05585C26.5057 0.966688 26.5057 0.966688 26.542 0.828003Z" fill="#D0D1D2"/>
<path d="M22.724 42.55C22.7468 42.6183 22.7468 42.6183 22.77 42.688C22.3355 43.1391 21.8977 43.5622 21.39 43.93C21.3507 43.9585 21.3507 43.9585 21.3107 43.9876C21.0113 44.2038 20.7068 44.4049 20.378 44.574C20.443 44.3789 20.5854 44.3279 20.7546 44.229C21.4871 43.7845 22.1868 43.2212 22.724 42.55Z" fill="#D6D6D8"/>
<path d="M9.20003 12.88C9.21521 12.88 9.23039 12.88 9.24603 12.88C9.24603 13.7453 9.24603 14.6105 9.24603 15.502C9.23085 15.502 9.21567 15.502 9.20003 15.502C9.09585 14.6178 9.11332 13.7658 9.20003 12.88Z" fill="#A6A7A9"/>
<path d="M43.286 28.014C43.3164 28.0443 43.3467 28.0747 43.378 28.106C43.3629 28.4703 43.1987 28.8325 43.0732 29.1697C43.0539 29.2225 43.0346 29.2753 43.0147 29.3296C42.9674 29.4585 42.9198 29.5873 42.872 29.716C42.8122 29.5365 42.8545 29.4791 42.9237 29.3049C43.0815 28.8838 43.1827 28.4511 43.286 28.014Z" fill="#CDCDCE"/>
<path d="M23.828 2.34601C23.828 2.48401 23.828 2.48401 23.7598 2.56781C23.7285 2.59839 23.6972 2.62896 23.665 2.66046C23.6308 2.69426 23.5965 2.72806 23.5612 2.76288C23.525 2.79799 23.4887 2.83309 23.4514 2.86926C23.416 2.90401 23.3806 2.93875 23.3442 2.97456C23.2757 3.04182 23.207 3.10895 23.1383 3.17594C23.0299 3.28171 22.9227 3.38861 22.816 3.49601C22.8732 3.28609 22.9886 3.17646 23.1412 3.03116C23.2312 2.94281 23.3123 2.85043 23.3939 2.75426C23.5273 2.59912 23.6668 2.47179 23.828 2.34601Z" fill="#CBCCCD"/>
<path d="M43.516 27.37C43.5795 27.5433 43.5434 27.6666 43.4958 27.8415C43.4826 27.8911 43.4694 27.9406 43.4558 27.9917C43.4453 28.0294 43.4348 28.0671 43.424 28.106C43.3936 28.106 43.3633 28.106 43.332 28.106C43.3385 28.0255 43.3452 27.945 43.3521 27.8645C43.3558 27.8197 43.3596 27.7748 43.3634 27.7287C43.3758 27.6191 43.3879 27.5201 43.424 27.416C43.4543 27.4008 43.4847 27.3856 43.516 27.37Z" fill="#F0F0F0"/>
<path d="M13.478 4.46198C13.4108 4.60885 13.3277 4.72904 13.2279 4.85585C13.2004 4.89101 13.173 4.92618 13.1447 4.9624C13.0754 5.04618 13.0045 5.12289 12.926 5.19798C12.9541 5.04 13.0138 4.94627 13.1129 4.82135C13.2062 4.7215 13.2062 4.7215 13.248 4.59998C13.2025 4.5848 13.1569 4.56962 13.11 4.55398C13.2437 4.49617 13.3306 4.46198 13.478 4.46198Z" fill="#D5D6D7"/>
<path d="M18.814 44.712C18.8688 44.9312 18.8297 44.9824 18.722 45.172C18.8434 45.1568 18.9649 45.1416 19.09 45.126C18.9565 45.2149 18.9107 45.2318 18.7594 45.2467C18.7015 45.2524 18.6436 45.2581 18.584 45.264C18.6599 45.0818 18.7358 44.8997 18.814 44.712Z" fill="#D6D7D8"/>
<path d="M26.542 0.828003C26.5876 0.843183 26.6331 0.858363 26.68 0.874003C26.614 0.955538 26.5478 1.03698 26.4816 1.11838C26.4448 1.16374 26.408 1.2091 26.37 1.25584C26.2924 1.34854 26.2156 1.43497 26.128 1.518C26.0977 1.50282 26.0673 1.48764 26.036 1.472C26.0725 1.43322 26.1091 1.39444 26.1467 1.35449C26.1941 1.30359 26.2416 1.25267 26.289 1.20175C26.3131 1.1762 26.3373 1.15064 26.3621 1.12431C26.4973 0.997187 26.4973 0.997187 26.542 0.828003Z" fill="#BDBEC0"/>
<path d="M28.704 4.18597C28.9761 4.20678 29.2262 4.23925 29.486 4.32397C29.486 4.35433 29.486 4.38469 29.486 4.41597C29.4535 4.40927 29.421 4.40257 29.3875 4.39567C29.3001 4.37859 29.2124 4.36289 29.1244 4.34859C29.0806 4.34142 29.0367 4.33424 28.9915 4.32685C28.9471 4.31979 28.9028 4.31274 28.8571 4.30547C28.8217 4.29639 28.7864 4.28732 28.75 4.27797C28.7348 4.24761 28.7196 4.21725 28.704 4.18597Z" fill="#D0D1D2"/>
<path d="M42.044 22.862C42.1148 23.0035 42.0609 23.108 42.0239 23.2587C42.0107 23.3134 41.9975 23.3681 41.9838 23.4244C41.9733 23.4665 41.9628 23.5086 41.952 23.552C41.9065 23.5216 41.8609 23.4913 41.814 23.46C41.8349 23.3948 41.8561 23.3296 41.8773 23.2645C41.8949 23.2101 41.8949 23.2101 41.9129 23.1545C41.9498 23.0522 41.9933 22.9582 42.044 22.862Z" fill="#C4C5C8"/>
<path d="M26.864 0.736023C26.864 0.766383 26.864 0.796743 26.864 0.828023C26.7547 0.876898 26.7547 0.876898 26.634 0.920023C26.6036 0.904843 26.5733 0.889663 26.542 0.874023C26.4343 0.887014 26.3269 0.902198 26.22 0.920023C26.4259 0.782723 26.6173 0.736023 26.864 0.736023Z" fill="#E4E4E5"/>
<path d="M13.478 4.46198C13.4476 4.5227 13.4173 4.58342 13.386 4.64598C13.3404 4.64598 13.2949 4.64598 13.248 4.64598C13.248 4.6308 13.248 4.61562 13.248 4.59998C13.2024 4.5848 13.1569 4.56962 13.11 4.55398C13.2437 4.49617 13.3306 4.46198 13.478 4.46198Z" fill="#E8E9EA"/>
<path d="M43.516 27.37C43.5505 27.4476 43.5505 27.4476 43.562 27.554C43.4729 27.6805 43.4729 27.6805 43.378 27.784C43.4049 27.501 43.4049 27.501 43.424 27.416C43.4544 27.4008 43.4847 27.3856 43.516 27.37Z" fill="#CFD0D1"/>
</svg>
