<svg width="21" height="20" viewBox="0 0 21 20" fill="none" xmlns="http://www.w3.org/2000/svg">
<g clip-path="url(#clip0_2870_12957)">
<path d="M10.5 12.5C11.8807 12.5 13 11.3807 13 10C13 8.61929 11.8807 7.5 10.5 7.5C9.11929 7.5 8 8.61929 8 10C8 11.3807 9.11929 12.5 10.5 12.5Z" stroke="#F49B75" stroke-opacity="0.86" stroke-width="2" stroke-linecap="round" stroke-linejoin="round"/>
<path d="M16.6654 12.4999C16.5544 12.7513 16.5213 13.0301 16.5704 13.3004C16.6194 13.5707 16.7483 13.8202 16.9404 14.0166L16.9904 14.0666C17.1453 14.2214 17.2683 14.4052 17.3521 14.6075C17.436 14.8098 17.4792 15.0267 17.4792 15.2458C17.4792 15.4648 17.436 15.6817 17.3521 15.884C17.2683 16.0863 17.1453 16.2701 16.9904 16.4249C16.8356 16.5799 16.6518 16.7028 16.4494 16.7867C16.2471 16.8706 16.0302 16.9137 15.8112 16.9137C15.5922 16.9137 15.3753 16.8706 15.173 16.7867C14.9706 16.7028 14.7868 16.5799 14.632 16.4249L14.582 16.3749C14.3856 16.1828 14.1362 16.0539 13.8659 16.0049C13.5955 15.9559 13.3167 15.989 13.0654 16.0999C12.8189 16.2056 12.6087 16.381 12.4606 16.6045C12.3126 16.8281 12.2331 17.0901 12.232 17.3583V17.4999C12.232 17.9419 12.0564 18.3659 11.7439 18.6784C11.4313 18.991 11.0074 19.1666 10.5654 19.1666C10.1233 19.1666 9.69941 18.991 9.38685 18.6784C9.07429 18.3659 8.8987 17.9419 8.8987 17.4999V17.4249C8.89225 17.1491 8.80296 16.8816 8.64246 16.6572C8.48195 16.4328 8.25764 16.2618 7.9987 16.1666C7.74735 16.0557 7.46854 16.0226 7.19821 16.0716C6.92788 16.1206 6.67843 16.2495 6.48203 16.4416L6.43203 16.4916C6.27724 16.6465 6.09343 16.7695 5.8911 16.8534C5.68877 16.9372 5.47189 16.9804 5.25286 16.9804C5.03384 16.9804 4.81696 16.9372 4.61463 16.8534C4.4123 16.7695 4.22849 16.6465 4.0737 16.4916C3.91874 16.3368 3.79581 16.153 3.71193 15.9507C3.62806 15.7483 3.58489 15.5314 3.58489 15.3124C3.58489 15.0934 3.62806 14.8765 3.71193 14.6742C3.79581 14.4719 3.91874 14.288 4.0737 14.1333L4.1237 14.0833C4.31581 13.8869 4.44469 13.6374 4.4937 13.3671C4.54272 13.0967 4.50963 12.8179 4.3987 12.5666C4.29306 12.3201 4.11766 12.1099 3.89409 11.9618C3.67051 11.8138 3.40852 11.7343 3.14036 11.7333H2.9987C2.55667 11.7333 2.13275 11.5577 1.82019 11.2451C1.50763 10.9325 1.33203 10.5086 1.33203 10.0666C1.33203 9.62456 1.50763 9.20064 1.82019 8.88807C2.13275 8.57551 2.55667 8.39992 2.9987 8.39992H3.0737C3.34953 8.39347 3.61704 8.30418 3.84145 8.14368C4.06586 7.98317 4.23679 7.75886 4.33203 7.49992C4.44296 7.24857 4.47605 6.96976 4.42704 6.69943C4.37802 6.4291 4.24915 6.17965 4.05703 5.98325L4.00703 5.93325C3.85207 5.77846 3.72914 5.59465 3.64527 5.39232C3.56139 5.18999 3.51822 4.97311 3.51822 4.75409C3.51822 4.53506 3.56139 4.31818 3.64527 4.11585C3.72914 3.91352 3.85207 3.72971 4.00703 3.57492C4.16182 3.41996 4.34563 3.29703 4.54796 3.21315C4.75029 3.12928 4.96717 3.08611 5.1862 3.08611C5.40522 3.08611 5.6221 3.12928 5.82443 3.21315C6.02676 3.29703 6.21058 3.41996 6.36536 3.57492L6.41536 3.62492C6.61176 3.81703 6.86121 3.94591 7.13154 3.99492C7.40187 4.04394 7.68068 4.01085 7.93203 3.89992H7.9987C8.24517 3.79428 8.45538 3.61888 8.60344 3.39531C8.75151 3.17173 8.83096 2.90974 8.83203 2.64159V2.49992C8.83203 2.05789 9.00763 1.63397 9.32019 1.32141C9.63275 1.00885 10.0567 0.833252 10.4987 0.833252C10.9407 0.833252 11.3646 1.00885 11.6772 1.32141C11.9898 1.63397 12.1654 2.05789 12.1654 2.49992V2.57492C12.1664 2.84307 12.2459 3.10506 12.394 3.32864C12.542 3.55222 12.7522 3.72762 12.9987 3.83325C13.25 3.94418 13.5289 3.97727 13.7992 3.92826C14.0695 3.87924 14.319 3.75037 14.5154 3.55825L14.5654 3.50825C14.7202 3.35329 14.904 3.23036 15.1063 3.14649C15.3086 3.06261 15.5255 3.01944 15.7445 3.01944C15.9636 3.01944 16.1804 3.06261 16.3828 3.14649C16.5851 3.23036 16.7689 3.35329 16.9237 3.50825C17.0787 3.66304 17.2016 3.84685 17.2855 4.04918C17.3693 4.25152 17.4125 4.46839 17.4125 4.68742C17.4125 4.90644 17.3693 5.12332 17.2855 5.32565C17.2016 5.52798 17.0787 5.7118 16.9237 5.86659L16.8737 5.91659C16.6816 6.11298 16.5527 6.36243 16.5037 6.63276C16.4547 6.90309 16.4878 7.18191 16.5987 7.43325V7.49992C16.7043 7.74639 16.8797 7.9566 17.1033 8.10466C17.3269 8.25273 17.5889 8.33218 17.857 8.33325H17.9987C18.4407 8.33325 18.8646 8.50885 19.1772 8.82141C19.4898 9.13397 19.6654 9.55789 19.6654 9.99992C19.6654 10.4419 19.4898 10.8659 19.1772 11.1784C18.8646 11.491 18.4407 11.6666 17.9987 11.6666H17.9237C17.6555 11.6677 17.3936 11.7471 17.17 11.8952C16.9464 12.0432 16.771 12.2534 16.6654 12.4999Z" stroke="#F49B75" stroke-opacity="0.86" stroke-width="2" stroke-linecap="round" stroke-linejoin="round"/>
</g>
<defs>
<clipPath id="clip0_2870_12957">
<rect width="20" height="20" fill="white" transform="translate(0.5)"/>
</clipPath>
</defs>
</svg>
